<mxfile host="65bd71144e">
    <diagram id="tnPTdwq940Q5IJL-1gsY" name="Page-1">
        <mxGraphModel dx="2385" dy="2502" grid="0" gridSize="10" guides="1" tooltips="1" connect="1" arrows="1" fold="1" page="1" pageScale="1" pageWidth="850" pageHeight="1100" background="#ffffff" math="0" shadow="0">
            <root>
                <mxCell id="0"/>
                <mxCell id="1" parent="0"/>
                <mxCell id="133" value="" style="rounded=0;whiteSpace=wrap;html=1;strokeColor=#1A1A1A;strokeWidth=3;fontSize=20;fontColor=#4D4D4D;fillColor=#F7F7F7;dashed=1;" vertex="1" parent="1">
                    <mxGeometry x="-710" y="-332" width="1006" height="734" as="geometry"/>
                </mxCell>
                <mxCell id="10" value="Actor" style="shape=umlActor;verticalLabelPosition=bottom;verticalAlign=top;html=1;strokeColor=#4D4D4D;" parent="1" vertex="1">
                    <mxGeometry x="-310" y="-828" width="53.5" height="107" as="geometry"/>
                </mxCell>
                <mxCell id="12" value="" style="endArrow=block;startArrow=block;endFill=1;startFill=1;html=1;strokeColor=#4D4D4D;strokeWidth=4;" parent="1" edge="1">
                    <mxGeometry width="160" relative="1" as="geometry">
                        <mxPoint x="-281" y="-683.55" as="sourcePoint"/>
                        <mxPoint x="-281" y="-616" as="targetPoint"/>
                    </mxGeometry>
                </mxCell>
                <mxCell id="13" value="Front&lt;br&gt;(Inteface de usuÃ¡rio)" style="html=1;strokeColor=#4D4D4D;rotation=0;fillColor=#FFFFFF;fontColor=#000000;strokeWidth=4;fontSize=26;sketch=1;curveFitting=1;jiggle=2;" parent="1" vertex="1">
                    <mxGeometry x="-400" y="-583" width="247.42" height="116" as="geometry"/>
                </mxCell>
                <mxCell id="28" value="" style="shape=cylinder3;whiteSpace=wrap;html=1;boundedLbl=1;backgroundOutline=1;size=15;strokeColor=#4D4D4D;strokeWidth=4;fontSize=26;fontColor=#000000;fillColor=#FFFFFF;sketch=1;curveFitting=1;jiggle=2;" parent="1" vertex="1">
                    <mxGeometry x="157" y="-49" width="60" height="80" as="geometry"/>
                </mxCell>
                <mxCell id="29" value="Banco de dados" style="text;strokeColor=none;fillColor=none;align=left;verticalAlign=top;spacingLeft=4;spacingRight=4;overflow=hidden;rotatable=0;points=[[0,0.5],[1,0.5]];portConstraint=eastwest;strokeWidth=4;fontSize=26;fontColor=#000000;fontFamily=Architects Daughter;fontSource=https%3A%2F%2Ffonts.googleapis.com%2Fcss%3Ffamily%3DArchitects%2BDaughter;" parent="1" vertex="1">
                    <mxGeometry x="79" y="53" width="205" height="38" as="geometry"/>
                </mxCell>
                <mxCell id="53" value="Request" style="text;html=1;strokeColor=none;fillColor=none;align=center;verticalAlign=middle;whiteSpace=wrap;rounded=0;shadow=0;glass=0;sketch=1;strokeWidth=10;fontFamily=Architects Daughter;fontSource=https%3A%2F%2Ffonts.googleapis.com%2Fcss%3Ffamily%3DArchitects%2BDaughter;fontSize=24;fontColor=#4D4D4D;rotation=90;" parent="1" vertex="1">
                    <mxGeometry x="-314" y="-404" width="218" height="30" as="geometry"/>
                </mxCell>
                <mxCell id="54" value="Reponse" style="text;html=1;strokeColor=none;fillColor=none;align=center;verticalAlign=middle;whiteSpace=wrap;rounded=0;shadow=0;glass=0;sketch=1;strokeWidth=10;fontFamily=Architects Daughter;fontSource=https%3A%2F%2Ffonts.googleapis.com%2Fcss%3Ffamily%3DArchitects%2BDaughter;fontSize=24;fontColor=#4D4D4D;rotation=90;" parent="1" vertex="1">
                    <mxGeometry x="-459" y="-404" width="218" height="30" as="geometry"/>
                </mxCell>
                <mxCell id="55" value="" style="endArrow=classic;html=1;sketch=1;strokeColor=#4D4D4D;strokeWidth=4;fontFamily=Architects Daughter;fontSource=https%3A%2F%2Ffonts.googleapis.com%2Fcss%3Ffamily%3DArchitects%2BDaughter;fontSize=24;fontColor=#4D4D4D;" parent="1" edge="1">
                    <mxGeometry width="50" height="50" relative="1" as="geometry">
                        <mxPoint x="-321" y="-349" as="sourcePoint"/>
                        <mxPoint x="-319" y="-445" as="targetPoint"/>
                    </mxGeometry>
                </mxCell>
                <mxCell id="68" value="A inversÃ£o de dependÃªncia acontece quando, em vez da &lt;strong&gt;ControladoraUsuario&lt;/strong&gt; depender diretamente de uma implementaÃ§Ã£o concreta de serviÃ§o&amp;nbsp;" style="text;html=1;strokeColor=none;fillColor=default;align=center;verticalAlign=middle;whiteSpace=wrap;rounded=0;shadow=0;glass=0;sketch=1;strokeWidth=10;fontFamily=Architects Daughter;fontSource=https%3A%2F%2Ffonts.googleapis.com%2Fcss%3Ffamily%3DArchitects%2BDaughter;fontSize=24;fontColor=#FFFFFF;" parent="1" vertex="1">
                    <mxGeometry x="-543" y="442" width="514" height="126" as="geometry"/>
                </mxCell>
                <mxCell id="87" value="Sem arquitetura" style="text;whiteSpace=wrap;html=1;fontSize=50;fontFamily=Architects Daughter;fontColor=#4D4D4D;fontStyle=1" parent="1" vertex="1">
                    <mxGeometry x="-402" y="-956" width="1234" height="51" as="geometry"/>
                </mxCell>
                <mxCell id="105" value="ðŸ“‚ APIJAVASCRIPTÂ Â &#10;â”‚Â Â &#10;â”‚Â Â &#10;â”œâ”€â”€ index.tsÂ  # Ponto de entrada do Express&#10;â”‚&#10;â”‚&#10;â”œâ”€â”€ package.json # DependÃªncias do projeto&#10;Â Â &#10;" style="text;strokeColor=none;fillColor=none;align=left;verticalAlign=top;spacingLeft=4;spacingRight=4;overflow=hidden;rotatable=0;points=[[0,0.5],[1,0.5]];portConstraint=eastwest;strokeWidth=4;fontSize=26;fontColor=#000000;fontFamily=Architects Daughter;fontSource=https%3A%2F%2Ffonts.googleapis.com%2Fcss%3Ffamily%3DArchitects%2BDaughter;" parent="1" vertex="1">
                    <mxGeometry x="306" y="-938" width="630" height="243" as="geometry"/>
                </mxCell>
                <mxCell id="107" value="Servidor Express" style="html=1;strokeColor=#4D4D4D;rotation=0;fillColor=#FFFFFF;fontColor=#000000;strokeWidth=4;fontSize=26;sketch=1;curveFitting=1;jiggle=2;" vertex="1" parent="1">
                    <mxGeometry x="-406.96" y="-311" width="247.42" height="116" as="geometry"/>
                </mxCell>
                <mxCell id="108" value="" style="endArrow=classic;html=1;sketch=1;strokeColor=#4D4D4D;strokeWidth=4;fontFamily=Architects Daughter;fontSource=https%3A%2F%2Ffonts.googleapis.com%2Fcss%3Ffamily%3DArchitects%2BDaughter;fontSize=24;fontColor=#4D4D4D;" edge="1" parent="1">
                    <mxGeometry width="50" height="50" relative="1" as="geometry">
                        <mxPoint x="-245" y="-426" as="sourcePoint"/>
                        <mxPoint x="-245" y="-340" as="targetPoint"/>
                    </mxGeometry>
                </mxCell>
                <mxCell id="109" value="CORS" style="html=1;strokeColor=#4D4D4D;rotation=0;fillColor=#FFFFFF;fontColor=#000000;strokeWidth=4;fontSize=26;sketch=1;curveFitting=1;jiggle=2;" vertex="1" parent="1">
                    <mxGeometry x="-627" y="-63" width="247.42" height="116" as="geometry"/>
                </mxCell>
                <mxCell id="110" value="SQLite DB" style="html=1;strokeColor=#4D4D4D;rotation=0;fillColor=#FFFFFF;fontColor=#000000;strokeWidth=4;fontSize=26;sketch=1;curveFitting=1;jiggle=2;" vertex="1" parent="1">
                    <mxGeometry x="-180.99999999999997" y="-67" width="247.42" height="116" as="geometry"/>
                </mxCell>
                <mxCell id="111" value="Tabela usuÃ¡rios" style="swimlane;fontStyle=1;childLayout=stackLayout;horizontal=1;startSize=64;fillColor=none;horizontalStack=0;resizeParent=1;resizeParentMax=0;resizeLast=0;collapsible=1;marginBottom=0;fontColor=#4D4D4D;strokeColor=#1A1A1A;fontSize=21;strokeWidth=3;" vertex="1" parent="1">
                    <mxGeometry x="-222.29" y="166" width="330" height="194" as="geometry"/>
                </mxCell>
                <mxCell id="112" value="id (INTEGER, PK, AUTO)&#10;name (TEXT, NOT NULL)&#10;email (TEXT, NOT NULL, UNIQUE)&#10;password (TEXT, NOT NULL)&#10;&#10;" style="text;strokeColor=#1A1A1A;fillColor=none;align=left;verticalAlign=top;spacingLeft=4;spacingRight=4;overflow=hidden;rotatable=0;points=[[0,0.5],[1,0.5]];portConstraint=eastwest;fontColor=#4D4D4D;fontSize=20;" vertex="1" parent="111">
                    <mxGeometry y="64" width="330" height="130" as="geometry"/>
                </mxCell>
                <mxCell id="116" value="" style="endArrow=none;html=1;fontSize=20;fontColor=#4D4D4D;exitX=0.5;exitY=0;exitDx=0;exitDy=0;entryX=0.5;entryY=1;entryDx=0;entryDy=0;strokeWidth=5;strokeColor=#4D4D4D;sketch=1;curveFitting=1;jiggle=2;" edge="1" parent="1" source="111" target="110">
                    <mxGeometry width="50" height="50" relative="1" as="geometry">
                        <mxPoint x="-50" y="113" as="sourcePoint"/>
                        <mxPoint y="63" as="targetPoint"/>
                    </mxGeometry>
                </mxCell>
                <mxCell id="119" value="" style="endArrow=none;html=1;fontSize=20;fontColor=#4D4D4D;entryX=0.5;entryY=1;entryDx=0;entryDy=0;strokeWidth=5;strokeColor=#4D4D4D;sketch=1;curveFitting=1;jiggle=2;" edge="1" parent="1">
                    <mxGeometry width="50" height="50" relative="1" as="geometry">
                        <mxPoint x="-288" y="-127" as="sourcePoint"/>
                        <mxPoint x="-288" y="-192" as="targetPoint"/>
                    </mxGeometry>
                </mxCell>
                <mxCell id="120" value="" style="endArrow=none;html=1;fontSize=20;fontColor=#4D4D4D;entryX=0.5;entryY=1;entryDx=0;entryDy=0;strokeWidth=5;strokeColor=#4D4D4D;sketch=1;curveFitting=1;jiggle=2;" edge="1" parent="1">
                    <mxGeometry width="50" height="50" relative="1" as="geometry">
                        <mxPoint x="-504" y="-67" as="sourcePoint"/>
                        <mxPoint x="-504" y="-132" as="targetPoint"/>
                    </mxGeometry>
                </mxCell>
                <mxCell id="121" value="" style="endArrow=none;html=1;fontSize=20;fontColor=#4D4D4D;entryX=0.5;entryY=1;entryDx=0;entryDy=0;strokeWidth=5;strokeColor=#4D4D4D;sketch=1;curveFitting=1;jiggle=2;" edge="1" parent="1">
                    <mxGeometry width="50" height="50" relative="1" as="geometry">
                        <mxPoint x="-41" y="-63" as="sourcePoint"/>
                        <mxPoint x="-41" y="-128" as="targetPoint"/>
                    </mxGeometry>
                </mxCell>
                <mxCell id="122" value="" style="endArrow=none;html=1;fontSize=20;fontColor=#4D4D4D;strokeWidth=5;strokeColor=#4D4D4D;sketch=1;curveFitting=1;jiggle=2;" edge="1" parent="1">
                    <mxGeometry width="50" height="50" relative="1" as="geometry">
                        <mxPoint x="-503" y="-137" as="sourcePoint"/>
                        <mxPoint x="-36" y="-130" as="targetPoint"/>
                    </mxGeometry>
                </mxCell>
                <mxCell id="124" value="&lt;meta charset=&quot;utf-8&quot;&gt;O &lt;strong&gt;servidor Express&lt;/strong&gt; (&lt;code&gt;app&lt;/code&gt;) gerencia as rotas e recebe requisiÃ§Ãµes HTTP." style="text;whiteSpace=wrap;html=1;fontSize=20;fontColor=#4D4D4D;" vertex="1" parent="1">
                    <mxGeometry x="337" y="-655" width="716" height="70" as="geometry"/>
                </mxCell>
                <mxCell id="125" value="&lt;meta charset=&quot;utf-8&quot;&gt;O &lt;strong&gt;CORS&lt;/strong&gt; (&lt;code&gt;cors()&lt;/code&gt;) Ã© ativado para permitir chamadas de outros domÃ­nios." style="text;whiteSpace=wrap;html=1;fontSize=20;fontColor=#4D4D4D;" vertex="1" parent="1">
                    <mxGeometry x="334.42" y="-561" width="749.58" height="70" as="geometry"/>
                </mxCell>
                <mxCell id="126" value="&lt;meta charset=&quot;utf-8&quot;&gt;O &lt;strong&gt;banco SQLite&lt;/strong&gt; (&lt;code&gt;sqlite3.Database(&quot;./database.db&quot;)&lt;/code&gt;) Ã© conectado e usado para armazenar usuÃ¡rios." style="text;whiteSpace=wrap;html=1;fontSize=20;fontColor=#4D4D4D;" vertex="1" parent="1">
                    <mxGeometry x="334.42" y="-471" width="958" height="70" as="geometry"/>
                </mxCell>
                <mxCell id="127" value="&lt;meta charset=&quot;utf-8&quot;&gt;HÃ¡ uma &lt;strong&gt;tabela &lt;code&gt;usuarios&lt;/code&gt;&lt;/strong&gt; que contÃ©m &lt;code&gt;id&lt;/code&gt;, &lt;code&gt;name&lt;/code&gt;, &lt;code&gt;email&lt;/code&gt; e &lt;code&gt;password&lt;/code&gt;." style="text;whiteSpace=wrap;html=1;fontSize=20;fontColor=#4D4D4D;" vertex="1" parent="1">
                    <mxGeometry x="346" y="-369" width="662" height="70" as="geometry"/>
                </mxCell>
                <mxCell id="128" value="&lt;meta charset=&quot;utf-8&quot;&gt;O servidor Express:&lt;ul&gt;&lt;li&gt;&lt;strong&gt;Recebe requisiÃ§Ãµes GET&lt;/strong&gt; (&lt;code&gt;app.get(&quot;/&quot;)&lt;/code&gt;) e responde com uma mensagem.&lt;/li&gt;&lt;li&gt;&lt;strong&gt;Recebe requisiÃ§Ãµes POST&lt;/strong&gt; (&lt;code&gt;app.post(&quot;/criar-usuario&quot;)&lt;/code&gt;) e insere um usuÃ¡rio no banco.&lt;/li&gt;&lt;/ul&gt;" style="text;whiteSpace=wrap;html=1;fontSize=20;fontColor=#4D4D4D;" vertex="1" parent="1">
                    <mxGeometry x="349" y="-295" width="896" height="146" as="geometry"/>
                </mxCell>
                <mxCell id="130" value="&lt;meta charset=&quot;utf-8&quot;&gt;O servidor &lt;strong&gt;escuta na porta 3000&lt;/strong&gt; (&lt;code&gt;app.listen(3000)&lt;/code&gt;)." style="text;whiteSpace=wrap;html=1;fontSize=20;fontColor=#4D4D4D;" vertex="1" parent="1">
                    <mxGeometry x="355" y="-115" width="498" height="46" as="geometry"/>
                </mxCell>
                <mxCell id="131" value="&lt;meta charset=&quot;utf-8&quot;&gt;Esse diagrama resume como os componentes do seu cÃ³digo interagem! ðŸš€" style="text;whiteSpace=wrap;html=1;fontSize=20;fontColor=#4D4D4D;" vertex="1" parent="1">
                    <mxGeometry x="359" y="-35" width="790" height="70" as="geometry"/>
                </mxCell>
                <mxCell id="132" value="" style="shape=image;verticalLabelPosition=bottom;labelBackgroundColor=default;verticalAlign=top;aspect=fixed;imageAspect=0;image=data:image/png,iVBORw0KGgoAAAANSUhEUgAAAtwAAAEeCAYAAAC5YcJLAAAABHNCSVQICAgIfAhkiAAAIABJREFUeF7snQVcVckXx3+PElAe/QgpUdIGC0XF7u7u7lp1115jzXVdu1b3b+26djd2Bza2oKKASNeL+c8L4IGPUlHEM//P+6/cO3fOme/MnXvumTNzBYwnUCICRIAIEAEiQASIABEgAkQgTwho5UmpVCgRIAJEgAgQASJABIgAESACCgJkcFNHIAJEgAgQASJABIgAESACeUiADO48hEtFEwEiQASIABEgAkSACBABMripDxABIkAEiAARIAJEgAgQgTwkQAZ3HsKlookAESACRIAIEAEiQASIABnc1AeIABEgAkSACBABIkAEiEAeEiCDOw/hUtFEgAgQASJABIgAESACRIAMbuoDRIAIEAEiQASIABEgAkQgDwnofNmyGWT3DiBi+REkhmhBt14XmPevBB3tLyuFSiMCRIAIEAEiQASIABEgAt8LAcEX/dLkmwMI6fAHEqJVH68U6EK3yTjYTK8FnS9s2n8vgElPIkAEiAARIAJEgAgQgR+bwBc0gxmkF04hMcXYlnNlYogPzEcI/ycZ3d+ooyUFYt/yLTh1PxCPwspi0vaJqKL7jXQhsUSACBABIkAEiAAR+AEJfDmDO+EFQv+7DymHmC4wnIzub9qtWPw1bJz9O44m8XYRiRCvmnz4pkqR8HxEgCEpKhoyoTEMBPlILVKFCBABIkAEiEABIvBFFk2y0Et41rE3As+GI1rM8JFNl2J0/3oOUplmerLXuzG+dT1UK+cGR1sRzE1NYGJuBTuXsqjerCfGL9mLe5GZXKy5SDqa7whI8D7gPywc0xUNKnrAydYSZubWcCrpg8bdxmLhf7cQJsl3ShdMhSS3sLRjTZR3sYWNywDsjSmY1aRaEQEiQASIABHIDwRy7+FOeov4nQcR/1wMHe96KGx/A4F9FiDsZbKiPlFRMRAYG0GoK0A6h5nc6N67EpHNq8Dc+2OxLOoRLpy+jDtiNSzSBES/e44A+e/0LqxdWgtTtm7CcO8i6cvODyRJh6wJSF7j8NQeGLT8Kt5L07+SRQTfwzn578ApRDtfxnSvj/tH1oXT2VwTkIXi/qUAPI3gL7H6ub6aLiACRIAIEAEiQARyQSB3lo00GNHDRyL8UrRSxL87ES6JwYcPSmNbcZAb1pHc6IZGozsSknC5CzNrsQIdETyrloaNLi8r+AHuPg5DImMQvz2F6f3moPKFWahCRkIumvkbZ2XRODulLXosu4eEFFtboIPCInvYGTNEvnmF0FgJtF1bo02ZrPvGN64JiScCRIAIEAEiQASIQK4J5CqkhD04gqirKmNbLorJoKVtCKsietBRd2erjO6PwkuE5WFYvlD2ShrWxpQdu7Bz136cvPYQAf/2gatCAIPk+V7svqnmBmcxeLBzNvo09EZxa0tY2jijbK3OmPDXVYRnjEBJeI5D8wegaSU32IksICrqDE/vGmjR53ec/aC0BCXXp8DLTAihUAiL+kvxQlWG7NVqNLFQHjctPxlXVSpInuzFnLF90LZ+VZR1c4SNpRnMRA4o6dcdM3cH4Pah3zGspQ/cbS34cTt4+LbDhE0BUF9bmgJE8u4S1k/sjFqlnWBlKYKdayU0HTAXewJjPw7T0URRFo4r68ahna8nHKwsYGnnCb/ef+FBFmEauZEpDjmD5SNboZqnA6wsLGHj5IFyvo3R/ddDeJ2RtZp+STd+x9hV95XGNt+5xq7RdOy58xpvHgfg6rXbePzqFe6d/B+Wzu6Gkur2dmIwTi0bhda8PvZWlrBy8IRv65FYeuIlEtLVX4ZXJ5dgwoCOaFzdCx5OthCZmcGyqDuqtZ+IzVfvwX/VWHSoURL2vH0sbF1RuflwrLoUBnW1JU/2YOaIHmhZ10fVlua8PzmhZPVWGLJgLwJjPgqW4lrI8OH2P5jRqz68itvA0tIWxb3qo9f0rQiQe4/VU1wAtkwdjM5NaqCCZzHY8jYyNbWATQkv1O81EzsfxmloZxne39yESV1roYyTFSxEReHi3QC9ZmzH3XQLlN/j4uqJ6N++IXzLu8PRRh6WZcoZuKFS04FYePQleBi/5pR4EP3slH1bKDSB87ATSH2F/sL3l2YF6CgRIAJEgAgQgQJOQL4tYE6T7OZKFlSuLntaJuOvDgt0rczO2JZnJ23UfrYV2RVXP/aoShv2ssc8FnkrKlNRkntzma+ZETMyMmLCov3YQe7STk3J59g4TxPFOSOhiPXYlaA8JQtjx8dXZdZC5XWK8yk/oQUrM2AXey1VlSJ9w7b3cGUmGvIaOw1gh+KV+cTXJrPypspyzOv9yZ6rrpcGr2KNzZXHTcpNYleSlfnj/+vKLNXl5uTfxg6s1foXLEU1eUmJD9ay9u5mTKjheqFNNfbTsVAmSyPy8b9k79mxMRWYSEP9UpgYFx/GTiSlXZobmbLIE2x0OXMN+gmZqO0mFp6pcvHs6OASzFhRLyEz95nOrqlYf1wJtSMxV9n8hk7MWFN9jB1Zg7mXWXSqzCR2cqSLSoaGvqCBqaKfWfmxeQFpQLJuSyGzqjySHQhRbzUJC97Rn5WzFKb1u1RZQmZZti/b/lKSWin1PpSur6quMXZswdY8ScvPmIQF/dePlc2kfKuqE9mpCBUEcQCbWdlUgx6qe8rEjfXaEZLW55KOsEGOxhryG7NiQ48zBZU8uL+ybHM6SQSIABEgAkSggBLI1fy9oGR9GJU9hIibcRleQwTQ0S8CK8TiXWwyJCmOQO4BT648FEXXtYHhZ2xFl/j4Eq6HqbyFAlOYm8kd8wzv943HwJV3EMcE0LWugJata8Be+gwn/tuL2++T8HzbBMxqVQfLGhhB9noP1u1/C3n4sKBISbTq3x7epmJEvLiH69LaKP/ZISoC6NlXRQs/Z0ifnMLBS694GAxXU6CFIk4+qOtji6grh3D6SSxksg/w/3MdbnSbgQryFhDfxuJ+E3H4tZjXSgADu0qoV9UesbePwz8wErLY21g1cDx8Lq9DS3PNW0kkXl6AsesCVV7kwiju1xQ1HYE3t8/i9M03aaEcKS2XS5kxx9Zjy7NkhX6FitVHv27VYY1oBD+4jveVK8BEs1qA5AHOXXqv9CRz73alHr1R3iC7t9h4nJneB7Mv8Os4Q60izqhWryLMw67g2PnniJNF4OJv/TDD5yLmVzfMUJg2rLybo56nDl6dP4jTz1ReY4EB7CrUhm9xKe4ePYZ7EVKw+JtYudIfQ5fXR3qVeFs6+qJVjWLQjgrE2WNXEMxjYeLv/4XBY6rg8qYOsOL1lb38C0OGbcNTeUML9GBVtg5quDA88j+B22FiJD77FyOGVUalXX3hkGEuSVC4BPya+MBeKxQ3jh5X6COL8Me8xafQ5c+6Cn1kQRsxbMQ/eMbLF+jbo3rblqhkEY+7h/7F0cAYxN9ZibGLW+PC9ArQU6egZYpS9RvAy1KK4IuHeZ+LgUz6BrvnrMKw5lNRPuNdr1McDfs3h4di8kmAwt5O0M5391d2fYbOEwEiQASIABHIxwRy/SLx4SZ736m5Bi+33Out7un2Yv61F7KIyExdn+lEp/NwW1ZmXX+ZwiZNHMMGdanPStsYp3pWTUqOZqfi+KXS52xpPQvFcaGZL5tzJ81TGXdyFPM0kXv2jFlx7q2TO8sl99M86Kbe49nZNPdoOj0+3cMtZA4DDytkseS7bI6vmdJ7aOzEBh1RuutlbzawVlYqb6h5U7Za5X6PPzqElTBWec9LDmaHUtzFCXfYgjoiZd2Flqzh8vRe8TTFk9jpMe7MROEpNWGeQ4+wDyrssohNrI2Fsmx1D3fuZMrY23XNmYWifGPm2ncPC1N39GbViRL3sz42qjobF2fD1F3smVwnC9vKOqiuEZr7sCmXY5U5ZdHs3ISKzEzh9RYy2y7/MqWDV93DbcHabf6gmA2QBq9hzURK2UJRe7ZF5Q2O2teXOat4m/rMZnfEyuLTPNxqbclLijr/C/OxUJVjXosteiT3QovZ9alezFTFpFjHTSxY5ZwWv/iLtXFQeY9NK7IZt5QCMpsliTk2jLkr+qsRM/Weyq4rsovZjWneyvKFVqz5miDu71ZhCN/OuqnKN60wjd2Q51f3cJvVZn88VeaWhW5jnexS+lw9tvSFquHUPdyWHdi2jJNPeXR/qapA/yECRIAIEAEi8EMRyFUMt+K9waQczJZPg2EJTbHYKk83j+nWtaoJ13XDYWqcmesz87cQlngfe5b8jj+WrsamvRfxIlam8KzqiGri53VTUFPu1OT7S1+6Lfe4ytdpBmB2VQtF3LX8Z91iLYLlG4Jzv2rUyxeQh2drF/NBZRvlN+Ylj1aglVdN9JiyDqeex2uIm81ctxyd0XVBpfImyv3IZbEIDVV6WQWWXqhQTPWde9l7hCtifCV4dJnv3KFw4GvDsWVP1EnxYuuXRNfOVZTeS5aEgKu3NMfhyt7h/r0wxR7o0LJA3VZ+mXucFRXIrUwBzCv5wE1P3pYyhPzbE94+7TFu2SE8jMoieFshi28TmTLjwdtQkIPuIL5zEddVG4brlOmA7t6FFSVBYIQq3duCO68V5cbfuIx7WcSna/FZjwqOSt5MEoZ3SsgoUr4i3FVeXllEuIq9UsTH/y+AsMpg9Kqip9gZh4nv4Yp8hkf2Flcuv+QkeeIe5fo9WsNO1bQ6ju3QvY5qJx3Jc1y7Fp5lHyvsXRmlVPpIQ98iTN6QvPyrV14oy2fxODW6JExV/du4WG/s/qDkLg1+gaAsGAjMKqCya2rhCAlV9JLsU36+v7LXnnIQASJABIgAEchXBHJvcHP1kyWGuNC6GV7appvIVlVMbnQbwdavLawcM85df3rdtcwb40//XRhX2Vhp+MREIirD9nKaSmcyqSKMBPq+mLTmZ9QqWohfzz/28e4Wdi0ehZYVvdBi1im802Q3phqKmkrO6pgA+gYGCj3lSZysWmHJwxoMU78uIoFYYSjxl4IPUarFe9qwtLbgZndKEsCELxZU2LlcZ3FkFA+fST2Z9g++C0hkygI6LSFMjLNr1tzL1Ck1HCvmNIezXH8mwYcHh7FqYkdULVcX4/a8hPpujuk05C8AIguVPjyU5snj0HQLFTXUBrLIyNRFpdqWVrBMAwIt/ndqcVFRiNbUbqn4OG/91FZAWjMYpn3kRSJWvqhoUiTlGK+Dg50qdIVJER3JQzRkkfiQIlzLjC9yVY+Z0oOlyFT1ASjOWv5hmSzKFxgYwjCtsygXLLIoRERqauwMBXF9srwN5H0urXAkq20olIVKYF/j/spKATpHBIgAESACRKAAEcjOMvuoqizhDc5efoZwPXs87tQ8E6ObX3bhIOJyYjB8JIE7MoUd8U9YNMIuzYKvUKmiLOIYFi+7iJSNIgRGJjDSUlopAv2a+O3qMzx//vyj36OtPWCrKIIbrz7jsPv6Nez9cwzaelujkNx2TH4D//k9MXanygupWyg1HpbFx2o2cDXonPFQTjy5ymu0YGxqrDLOpAgNCVUzABki3oYiWWF38Th1ExMUTjHM1AUKikBYRHVCGoqg4MSM6mT4+1NkGqJ0v//h8q1jWPNLF/g6GCpeXCTvr2H1gEFY9zwTk1LHDeVL66tePsS4smkz7mVj9GmZmEKYWp0QvFNzysrkHmCVKC1jE6i6Rzb1VZ1OsV9z3jiqCxMRHaViymPyjYRFoKVlArOUFxs+WxHyTv2VIxmh7z6ojGzO2kSY/uurGbXVpI+AvzilQOCyWq2+/1HfVvT3hyvQNNuY+IwC5X9rQzvl7ue7CiXzD1appzy7vzSpQseIABEgAkSACBRwArkzuKXRCLh0F09V0/0C49IwWDwVxiUzLlzj1KSJ4FEQn5UKeQ7Gsmk1obBrWDIerR6JmedUn8QzKIXybkoPOku6hI1rbkJiYg5z87RfEX19GBnJPdryxD2B3HATGDqiZo+pWH/qFk5O9IbCLymLwuXzdxReWm0rG1ipPKqSp5dwWaPr+7OqleFiHbhW8oZiHSjXMWj3BhwLVxk/iXfxv82XlR5PviivdIUy0BTIAy1blCtnrfSMc2/30dXrcT9Lm/sTZHJ4cru3kE0ldBi/AgdvXMKCOkbK2YaE6zh/IxOBAhPUbVMfpor68ZmFgAXo2ncZzr3m/SOVBEPiuwAc2HcNEfygbulK8FLNBEj4lnsbr8Yqc/K6Xdy4HfcVMwMCGJarqAovSS0oT/4he3MAOy8kKfXVdkZpDx7iomUN7woOyh3lubf72Mb/VGFMPGDnBdf5hGorRx0neHtZpM525FhBXn6ZMqo25f3z2JqNeKJtlq5/mxnqQ9+4cPoFkzkVIDfoU8K9JI9w52GGmzWP7q+cqkf5iAARIAJEgAgUJAK5iPlIRtCtm7im+HAN/3SNUVH4Vi0FVyG3TpdPh2DwVETei1exEUC7Sh0YijS5Y3ODTxvFei3Cz7uqY8JZbsCIn2Dd+MXocHIyvPRd0bZbNfwe4M+93kl4sKY9Kpz0QU1vB+gnRSA0KBB34ltg+wXlTiCy1+vQuuZKiKtWQ+litrAoLMHLE0EqbzI33gorY24FFlXh66EL/1t8x5D4U/i5YXOc47tV6EXcUhl6udE/Z3kN/Pqhp+d2zL+bBGnwFvSq8QT1qtkjLuA4TgUmKAw9LfNG6NfOMRNPKd/9oyff/WPDdFzju2nEnJ/Cdzk5jvo+jjCIu4/bGmJ8cyszZk9fVJgaDO/q5VG8qCX3QIfiHNdNkQT6KFxELe4jXbUFMGs+EeOqnsAv53hoBW+r57snosneGTC3t4eoiBYSP7zBq5AYiPVr449bO9HTpjkGdpyNo+t5+4jvY2lrX9yqr9yl5Oi554pdcATa9mjfrzHMPreLaWwi/jGe3ePQMm4v3M0S8ODoflxUxNvzHVpKtkZLVcB1+Z794bNmPM7G8b2yD49ELb/98HNjCDzFdymJVOYv7NMX3T7pYz66qNi5C0qt/w1850LEXp2HJl77UK16GVjrxON9yEset2+AgacOY7hz7t6bFVXWcUG50oUheBoNJg3CX32bIayuJwzj3uCFRU9sm9coT+4vjbjpIBEgAkSACBCBAk4ghwa3DJFPAuD/PI5Pk/Ntw6xdUbdycVilhHDLF1KunAedFdsQ90QM7XJ1YNLLDzqfYAd8xFu7OPrMGY4tdecggG+PlnxvBab+3Q17+jvBqdef+ONKCwz+9xnfgk+KqCfnsPdJWgkCg8d4xt8BKgh53PmdGwgIf4KI3U9wLoMQQREvdO9QVunt1nZDbx6bvLHLJr4YjS/Me3EG//Ffnia98hizchqutp4Ef76oLeHVZez953KqSIGBO3ounYfWlplblzoeQ7Fi7jW0GnMAr8QyxDzxxw41Fh/pnyuZYjy8cROhL59h/8srGelB37Uruvlq9L0r8+q6Y9CG/yG8a28svvxeEXPMZAkIf/kI4eqlJV7ArkMh6N7bFn7TVmF0QEcsvMbj22Of4czOZ2k5tYzhPXoVpvkV+ahaX+oAi3uB87v5T61AQeEyGDZvMEqq3i20nfvgz4WX0Hz4LgTxAPHQgEP4NyDlAr61oEMrLPyzN4p94n2gW3YkVs66gTYTj+IND/lIDr+PU7vuq3GwwKNn/G3KWdNaimxI8JmHhgN7wv3wn3jA76uk15exY6Oyz+m4lsITSROUz4v7Kxu16DQRIAJEgAgQgYJIIEemQHLYIxy/zT+vzk1Skas3WlRTM7ZTqAjdIBw/FTZrZkI0pBb0UhdqfT42vTJDMKOLgypkIhbn/lgMf3mUgY4j2q4+jVPrJ6JTzZIoaqwPbW1dGBhbw7ks/4JkjwYoIVAGLkhtqqNzqxooZWcGA10taOnow9iWf4mw7RisOrwTo0qnGC18R45Gi3F4xwx08/OADQ9J0dbSQSFDE9gUKwWfBh3Qv399OGTm0P3E6hrwOm73343f+tZHWTsTrmMhFBGVQJU247D2xDH83tg6E+92ikA9uPX8H04fWYqRravCzVoIAx1t6BoYw4rrXaVeW/Qd3Ix/sTNNwZzLFMC0Qiu0q10WTpZFoMeDf7ULGcGqRCU0G7wI+/bPQDXVRiKZVV9LVAtTD17FybW/oEfDCijB9dPnb2QC3g5C6+IoV6s9hs/biHltlfUUGFfD5P3+2DKlC/w8bSHU14W+0AYeNbtg8hZ/7J9cDZ+wAU5m6mU4zhe9lqiG2mXtYGqgx8M27FC20WAsPbQPk33UjXxdOHfmO90cXoKhzbzhZG4IPT1DmDt5o+mQP3Do1Dp0dv6MDej5btwl+2/D2SPLMKpNVbhay9lr83vLFLYu5VGrTVf42aePvc5hBRXZCledht3bp6NT1eKwMNDhX43lbWHriaoViylDl/Lk/sqNhpSXCBABIkAEiEDBICCQb4KYZVWSQnHmxHUEJhvBw7s8qtgXVsatZnkRnSQC3x+BhB3d4NhrD3+x5C8YXf7FoxUNNMfMf39VI42JABEgAkSACBCBb0ggm5ASKd7cf4AgAyfUqeEK50zjdL9hDUg0ESACRIAIEAEiQASIABHIxwSyMbhlMHT0RrtyRRRb6FEiAkSACBABIkAEiAARIAJEIHcEsjG4dWFi9jkxqLlThnITASJABIgAESACRIAIEIGCRiD7GO6CVmOqDxEgAkSACBABIkAEiAAR+IoEcrRLyVfUh0QRASJABIgAESACRIAIEIECRYAM7gLVnFQZIkAEiAARIAJEgAgQgfxGgAzu/NYipA8RIAJEgAgQASJABIhAgSJABneBak6qDBEgAkSACBABIkAEiEB+I0AGd35rEdKHCBABIkAEiAARIAJEoEARIIO7QDUnVYYIEAEiQASIABEgAkQgvxEggzu/tQjpQwSIABEgAkSACBABIlCgCJDBXaCakypDBIgAESACRIAIEAEikN8IkMGd31qE9CECRIAIEAEiQASIABEoUATI4C5QzUmVIQJEgAgQASJABIgAEchvBMjgzm8tQvoQASJABIgAESACRIAIFCgCOrmpzatXrxAWFoa4uLjcXEZ5iQARIAJEgAgQASJABIjAd0mgcOHCsLS0hJ2d3SfrL2A8ZXd1fHw8AgMDIRAIIBQKoa+vn90ldJ4IEAEiUCAJPHv2DM7OzgWyblQpIkAEiAAR+JhAYmIioqOjITeZ3dzcYGho+HGmbI7kKKREbmzLjWyRSETGdjZA6TQRIAJEgAgQASJABIhAwSGgbgPLbeJPSdka3PIwErln29jY+FPKp2uIABEgAkSACBABIkAEiMB3T0BuC8ttYrltnNuUrcEtj9mWh5FQIgJEgAgQASJABIgAESACPzIBuU0st41zm7I1uOULJClmO7dYKT8RIAJEgAgQASJABIhAQSMgt4k/ZfOQbA3uggaK6kMEiAARIAJEgAgQASJABL4mATK4vyZtkkUEiAARIAJEgAgQASLwwxEgg/uHa3KqMBEgAkSACBABIkAEiMDXJEAG99ekTbKIABEgAkSACBABIkAEfjgCZHD/cE1OFSYCRIAIEAEiQASIABH4mgTI4P6atEkWESACROCbE5BBKvvmSpACRIAIEIEfigAZ3N+guaWJ7xH08CU+0EPvG9AnkUTgRyMgxrPto9CoWj0MXH0Fb+6sxMD+63E/8UfjQPUlAkSACHw7Ajp5KVoSdg3/rl6Pnadu4um7GMgMLOFcxhfN+w1Hj8qW+BGtfdm7rehbfwYuogH+uLoYDfTysgWobCJABPIFAUkA5jfpjHUvpRnU0YJZu9U4/asvdPNKUfFt/LP6JJKdqyB8Yy/UWSRDIa/xMMgzgXlVESqXCBABIvD9Esgzg1sSvBtjuk/C0RAJWAofcQgenN8Hs3pDucH9/UL7LM1l8ulcTuRHfNv4LHB0MREoAAT4J4F19QujkHZKXbRQJO2PvKmgrheG/bEKTe0qwz3mLDbvfI4SbbugWKoOeSOWSiUCRIAIEIE0AnljcMveYvevs7ixLYW2TS0MnTQUTcvZwSDhNe5ffQpDP5HS3kwKwvEV87F813k8idKFdem66DpyDLp6m/HzMoQcnYupa87iUXAI3sfKUNjOG01aV4b00m4cufEKiUbOqNZxPKYNqgoLLZ7/yFxMWXsWjxX5GQxtPFC99SCM7lsDtinenOxkqsp4EhKGD1FJ0DYthkqtRmDSsNooqqIleXcBa+f9jn/8AxGhbQkPv64YO6EHKphpQfp0Byb/uhk3Xr5FeEQMknUt4FajE8b+3BeVLdSs7KTDGFHGnbeEDtyH7sB/Q92gw3U7uuw3LNt1Ec9j9GFTtj76jB+Hdp5FIKBeSwSIQAEgYITGv5/DXL/0U1uJB0egwugjkFWZguPrO0P0YTv61ZqMc4L6WHhpCZro3MHGsXOx834wQiMiESs1gHXJ2ug14Wd0Kp0yPiQh+PhKLFixG+cfh0FSxAGV+i/A8o6x+GvubOwMDEa4alz0E5ZGqe5eMFEMLAyRAVuwaOHfOHo7BMlCZ/i0GIRxQxrASb8AIKcqEAEiQATyAYE88bPKQo5g98VYMG1rtJ6xAAPrlISduTHM7TxRvVUzeJvyUZ5F4MS0nhi56hgehMmgp5OIV9d2YE7fAVj9QMzRyPDhwQVcuPMcoQm6MDHWQezLC9i8iBu6l95AalgI4vBAHF82DvNOxPBHBs//8AIuyvMn8vymhZD4+hb2LxmMHjPPIEruZs+JTFUZPAIGRib6kIQ/wqnVYzBhSxAUk8GJN7Gk3yD8cfAePuhbwlwrDAF752HgmK0I4hlk727j7JX7eBkaD22hCfSS3uLOwcUYMeMgwlNd/bwcrcKwciqGYsWKoaipHgQsEv6/9sboNafwJK4IRCYSvL7yD6YNmIJD6S7MB72GVCACRODrEpAE4br/NQS+eo+kQsYQasfi1fWdmDV8Pi7Ey1WRIezwL+g+ciWO3H8HMc+jn/AGCdom0NIRICYkBGIDC1hbFkLCq5vYM3ckFpxVXAjxo7UY1Hsm/r0yy0pfAAAgAElEQVQShFgt/iIQEYgTa0ej15Sj6cesr1tjkkYEiAARKFAE8sTglr58hhdSBoFuGVSpUFgjMOnLXVi9PwRSvZIYsPUcrl46ivmNRBAk3MPfG88hIfUqLdh0XIFTZw9jZi25J0cbdt3/wvnzx7GwMfeEyyL5tQ+UxrDiGp6/gzz/BZxY0Q4O2hK82r0O+9/yUI5cyVzJyziP7UM9uQ86AQGnzuM9Y4g4shqbHyejcNXJ2H/6BE6eWIsujtqIvboTB5+nxWdquw/EFv+zOLOuC9dBhqjzJ3BdfZGSbnX8vPcQDh3ah2VdigHBu7Bq72vILBpj4dHTOH7qCK+fBRB+AjtOhKeF5WikSQeJABH4LgiwaOwZWAbu7u7KX6l2WP0sY1x3FjXRrYKJ+07j3ImFaGzOZ9RCT+PkHQkgeYgtyw4jRFoIpQduxtnL53Hp6nmsbGfLDW5vTDh8Bf4H/8X/Nm3D4k5O0JFF4Ma1p5Dwse38XxsQECeAZYPfcPTKVZzbNhil9GR4e2gtdr3IhW5ZqE2niAARIAI/OoE8MbjlUFNDINS9umq0xQ/vIFDCoO1SH81KcUNaxwp1mlSGoUCG6Af3EMSfIemSlhk8S9pzc5shMYFbrgIhPEs78b+5MRsVzf8/Y9KGRbUOaOyoAyYOxL3HUuRaJl/GVKyMJ4S8MrKI9/ggleLJ7QdI5IZ37PnpqFuKPzS9u2PTS66sLASvuVGfMRmWLAsXHorCkj/gffTH51Pyix/cxkMx99OHHcBIX0+4e1TFiAPhkDEp3r55p/ZCkVEC/U0EiMB3Q0Aew21QBEWKqH5Ghmrx3DmvhUBYEmWceBA2dzi8/8DXyXy4jQD5OMTjtdt2LgehfGTXKYzCPCREFnYBS/rWQUXvqvCr0wiDt7zghjZDQhx3a3DP+d0HUZAJDFGleQPYcm+4oUdj1HPhI63kEe4FymcbKREBIkAEiMDnEsiTGG4tWztY8wE/THwHV24loHFVg9zpmUnAsq6eUl0pX3goT7q6ysBsxjIxZAW60JWHSvLzMvlCxaxSJjK5EOXuAfIy+ENKyjewZdyLXqR0M3SpZpP2YsEfWKUdeKVfZRDCFVBqya+Tq6n2JqKqhuICpigX0LashLZtvGCaWowWzCupYt6z0p/OEQEi8B0Q0BzDnfRQAG6LA8li5MzE5eOSfGDhL//ycYVJJOD+Cz6+aEM73WLIRFxc+jNWXwiHWeWeGNemJKTnl2PunpdprLIZGr8DqKQiESACRCDfE8gTD7e2fU3UdtWFQBqCHVPHY/3ZxwiNjkVMWBDu+O/BWe6J0XUvBVfuTZE+Pop9d3m8t+QdThy4hHimBSM3Tzh8xquATCxWeLyTnp7CWXmYh7YjSnBv0OfL1IazRwnocS98QiTg2mYgRo4ciZFD+6B9+46o7ZD9sn+twkVQWIs/WaVBePpC7sZnkEik0HNxh7PcYRUdBT3vzhgiL3fkEPRo3wGtfcjgzvd3EilIBD6DgLapBUz5aCx9HoA70bm3gLXMi8NZXoDkFg7ufwZl9JqEzwZGIDg4knuwdVGy1UB0as6912Us0977dRxQ0kMILRaPS3uP4A232uMfHMQxPiMo0HFBSTfaO/AzmpUuJQJEgAikEvgMszYLitou6PZzLxzrvwb3g49iXj/+S82uDcfejjgwriX6NNyE0fvvYVUnX2wy5AN9XBKYfil06+GLXPrE1ZThIRhb+8P3uCkEkaGIShbAqHo7NObGsLbgc2VqQdSoN1quu4J/gvZgbMMjmGFiAAk3kqW+c3BmRYvs9TYsi0qeevC/+RArOtXEDiNudNdahKNTW6N3nS0YfzQQ/+tfGztMjKGbGIVY/eZYcXo2atB+3Vl0ODpFBL5vAjqlaqGGaCv+CTmEcXWvYK5+IsLlru6c3vd63mjX3h27l93HhTktUG2NCEIeL55UbTZ+d7OG9oVgnJvZFh33OEDvnfqaFwP49uiGkkeW4M6RCah/biZf6B2LeKkWrBr3QUt52AolIkAEiAAR+GwCeeLhlsdNFKkwCn9vmYcBjbzgZFEYujo60Bdaw7VSQzQqLYRUYIEGv67H/J41UMKMb/6RrAebMs0xdvVKDOAG6acnAQpZ28FUEsVX6FvAo8EILPutLWzlNf0CMgVCX0zauBzDm5SDnREQFxkHAd86sIxDYSRlEtmSri7aTuj06wy09y4KQ2kkwmILwbSQFAkCKzSd+zcW9qsHT2sDSGOikKhriRIlbaGfsznmT0dGVxIBIvBtCRhWxbglP6OVFx8XxJGIiNeBmZ0bKvh553C2Tw8lBy7DHwNqolgRID6cb0uaYACLQgzFBy/CL629YKsdhruXLyHgrTasXb1Q2cNc4enW9RiAlavHo0U5WxiIEyAzKYEa3edh/ayGsMws1O7b0iLpRIAIEIHvjoCA8ZSV1ufOnYOzs3NWWfLJOQnu/9EK7Vc8g1WPv3FkojffXYQSESACRODLEnj27Fk+HhMleLCkNdr9bYlfdq9CJzsaBb9s61NpRIAIEAFA/hzw9fXNFYo88nDnSgfKTASIABEgAl+AAIv9AJOmXVANl7B6ww2+GwklIkAEiAARyA8EyP2RH1qBdCACRIAIfDYBGd7tGYv6v16GhH8Bt25pe+UXfT+7XCqACBABIkAEPpdAATK4deA5Yh/ujvhcJHQ9ESACROB7JKAFi2Yz8U/JcEDkAnfbImRwf4/NSDoTASJQIAkUIIO7QLYPVYoIEAEikGMCOkJ7eJazz3F+ykgEiAARIAJfhwDFcH8dziSFCBABIkAEiAARIAJE4AclQAb3D9rwVG0iQASIABEgAkSACBCBr0OADO6vw5mkEAEiQASIABEgAkSACPygBMjg/kEbnqpNBIgAESACRIAIEAEi8HUIkMH9dTiTFCJABIgAESACRIAIEIEflECOdimRf1GHEhEgAkSACCgJ0JhIPYEIEAEiQARyQyBbg1skEsHV1TU3ZVJeIkAEiECBJfDo0SMaEwts61LFiAARIALZE5A/B3KbKKQkt8QoPxEgAkSACBABIkAEiAARyAUBMrhzAYuyEgEiQASIABEgAkSACBCB3BIggzu3xCg/ESACRIAIEAEiQASIABHIBQEyuHMBi7ISASJABIgAESACRIAIEIHcEiCDO7fEKD8RIAJEgAgQASJABIgAEcgFATK4cwGLshIBIkAEiAARIAJEgAgQgdwSIIM7t8QoPxEgAkSACBABIkAEiAARyAWBbPfhzkVZP3xWiUSChIQEiMViMMbylIdAIICuri4MDAygo0PNmKewqXAiQASIABEgAkSACHwGAbLUPgOe+qVyYzs6OjrPDe0UmXKDPjk5WWHcC4VCMrq/UDtSMUSACBABIkAEiAAR+NIEKKTkc4jGBWDf7tuI4s5suWc7r73amlSVy0xIiMG7C//h6FOxpix0jAgQASKQgYAUT/bPw69b70JCbIgAESACRCDPCZDB/cmI43B+Zh/07FEfHVY8U3iav1WKvTATjZr1QfeBy/Dg26nxrapPcokAEchIIP4UxpYrjsbLAiHNeE7xdzJu/7sQa8+8zuS8xovo4CcSkNycg+rOPphx5QcZoFkYdvT2gFvXrXgjywJatv00s2sZf+bSq2JmdNSPs/hgXD1yGo/ic5Kb8uQlgbwxuMVXMbm8qSLUIeNP1H0nEvKyRl+pbOnTvzBj/WNIjWuiW0unb+LdTqmqXtk26FRaDwlXF2POnjDkbfT4VwJMYohAgSIgw7szi9G3Xhk4WpnD3KoYyvh1xPQjIcjKHvlkBNpmcPTwhKt1YQg+uRC68EsREAjt4O7pDjvjvHnkfik9v1w5+rB0dodHcREMsuqAuein0uAdGFrNEebG3K4wNodLo/m4TEZktk0mubMCfbvPg39Enow02cqnDGkE8jaGmy/s0zMwgr6aFH0DvQLwABDj5sb1uJqgBZtOA9DaVgvx779ht9J1RY/+tbF40GEcXrsdL1sPhtOPMq5/Q+wkmgjklIDszWYM7fwr7lUYimlra8CpUDSe37iCJKEJ8uRWLVQWw7buy6l6lC+PCWgX74Y1+7vlsZR8VLzACDUm7UKN7FTKRT/VEtXDtD23MEtPBzq6hfiGAXp5c+9kpzOdJwKfSCBPxvo0XYzRZsNTvHr1KvX3ZFVT6MuCsKGNI0yMLVF99i0k8gsSrk2Hj4UxTEuPwPFIKV7tmYDWfhXg4WQNC3MrOJaphz7zjiE4WVW6+AG2jeuC+hXdUNTSHBa2Lqjy0zHE8dOSN6ewoLcfPG0tIXIohbr9/sSF8JS3uyQ82/UzWlUsDisLEYoWL4OaQ//DK/lp6Rscn9MZ1VxtYGFpg2Ilq6Hb2ocfT7lK7uLAwReQaBdF8/a+MPhE+F/uMgFETTqgrhGQdP0AjmY5h/flpFJJRIAI5IyA5O5FXE0si/4LpqBXszqoVb8Vek+Yg0E+KaOHDOHn/0Df+uVRzNoKxbxb4pc9L3jghzxJEbh5GFr4llR4xy1sPdFjyxPs6+sIUfO1alP2MdjV0w72vXYjRjHLaIWmq1+rPOgSvDoyEx2rlODjnhVK+HTCqtvpp+SlIacwv2cNeNiKYFWiCtpN2YtnSar6yV5h7y/tULOsM6zNzWHt0gxLH3wcrCJ9dxZLBtRHGUcRzM2tUayUL5qN2o4X8qxJh9DfzgrddqTMcTKE/90aVm6jcTplXE94hP8mtkU1DztY2XrAr89yXInMZM4u+SUOzuwCXzc+XvNnhL17JdTvuRoBKdVi0bj11wg0q+QCWysHlG44ApvuqVyimdUnq2t4tPvtVT1Qt6I7HHg7mFnaoWSdgVgXEKs2qxiP+9t+QsuKzrCy5O1Yrjl+vyGG9NkS1LHywew7SuUSz0xDTU97iMzkLKui81x/hGmqpvQ5/u7hjeI2FlyeA8o0GomtD1P4yfD25Gx0qCJ/llmiqEsl9NkS9NGMScL1FejduDLc7XibWNqj7MjDiucksmH9eW2ZhCODHGGVMqOdcA9/D6uPUnaWsLByQqk6M3FB3rc+6qcMUTfXYXijspyxJWxKVET3v/hMMs8qi7iOv8a2QBX34nAuXQMd1PtndvVhkbiytDdquNvCwsIGxcu3xrK7mkJSsroPVfeC6j+ZcRW/OoJZXf1Q2sGKt60POs85hbcp5kdmHKQvsH1UM1Qr5aS4v0SOZVB/wBKcC1W/x+Jwd/NYNPdygpXIDqXqDcLKKx9S+17y892Y2MILjiJ+vb0HfMcexIeUPpV8FmM9TRQRB2ZVZkF+62fZBzPTMz0C+iuXBPLWw52ZMloO6Db/F+ysMQ6nl4zH6mbzIP5pOe5L7dFtwTTUMWG4fecU/G88hszAGCJzASKDrmD7rI64+nobTi+uB1PxPezfuA+XkrRhYGIOY0k0xPqmKJRwGTPbdMDv95Ohb2EHS+k7XP1nEtq/K4Qzu/rDKfgvDOWxzucSDWDr4Q6L5BC8ideFqRZDxH/j0eu3/YguJIKLuw0EYcGIEXzsgWJh13HthQSCwpXgW04vs1ry44l4uG0yJi4/j3diBl37+vhp4WQ0sefYxZcxrc4saPepjsdbduNBuADF283Enz/5wVIrGYeHV8LmYmNR7OJfOP4sCoVK98GCJQPhbZTJ/JxRZVQrp4tdZwNw+VYSf7B9+9eALMDQKSLwQxHQdnCGo2APDvxzGV0nVIWFdvrqSx+vQveOf0LQew7+nmWDd3tnYuyAfrDyPIzhLhK8OLcX53U6YtW25rBBNLSKO6EEqwStCedxJa4vWvKXbSTfxPkrEniP80ERBKUTkHx7ATp3Xw5p68lYO7sEJE9PY8PCM2l5km5hXvuOWK7dGdPWTYf9B3/8ObUPWsX+gzMLa8NYGoKrB/0RV3U+/tfFFXpxUtg4ZqiEvIx2bbE4riHGzhuDClYCBP83CWP8byNM1g5O2bU4i8JxbmwPO18JUxfvgJfWTaz8aQq6/1ICV5fVh7yKqYnFwP+XVuix3Rw9p67HbBd9fDj0K/puvIY30v4oqyPDm+1D+EtDEJrNXI0pbnHwXzAWo3qawP38dFQQaKqPIOtr9KQIueWPAGE3rNtWD8KkYBz9fRJ+6mWJMpd+RUU9hnc7hqDlsMsoPXwm/lfdBuJ3H2DpwMf76PSV13NugNGcq7WlLiKurMKEqQMxs+JN/FE7w7itZQnvblOweoAtjMTPsWfWOIwc5QafA4PglHQSswYuwZtmf2DHSncUev8YkbZWGby+DEmBp3DgjhWGr5iHWmZSxBp4wCA71p/blumqK8Pz9aMx7pgJJqw7hNqiRLwK0kExXZ4pwzubLOhv9G71M17U/AmLNnvDNP41EpyKQpvrMyer/oms+47BzcUYPP0myv22GYsrCBHz4h2M7TL0X7k6Wd6H6vkz4Zp4HbM69MQ2uzGYs20+hE82YdKEnhjpeAlbOlvhZaYcwnDb/xLEfgvxd1t7sHdXsWnuLLRtF48jRyegbCHet3YOReuRV+E1bgG2VNTDw80zMa1NNwhO7cGA4pHY+fNQbEnuhyX7WsKJvcXjRFcIubmgsPV1vTB25zK05fekQN8SxXiXzLwPFsq8vdJ3Y/ortwT4LhdZpsDAwCzPazyZfIVNKmfCjIyM0v9MK7LpN8WqS5JZ4NKGzEZozKydizEroQnzGHiAhcvkp8Xs1q+VmKmRCSs5/gJLZhL27vAwVtbUiAktm7BVwVLG4razLpa8fIuWbEOo/CIxS0yUsLAt7XmZQmbbYg17IRcVc4aNLWfKjMyqs3kPJCz57FjmYWLETEoOZ8ci5dfJmDhZnlHC7s/1ZWZGxsyhyzb2TqLUQ3EqQ0q+MomV42WYVpnFAlTnw8PDWcZf6N0/WeOivmzqudcsPOwZ29HfkxXvu4O9lucNOcRGeloxj84r2PXX4ezt3b9YJ5dSbOShN7ycN2xrV1smqjCYbbv7loW/ucoWNnJk1WZcYu80yJHLZSyJHR/qzIyNzFn9ZS8YJ0SJCBCBPCDwSWMii2MBa3qxCramzLZsczb8993s9nvFIMNTMrs4oTQTNVnF5EOb8tA1NsVLxOotfc7v5UR2eKADE3XbweJVp+X/kQavYk1EJdjQ48qj4utTmbeoHvvzOS9EMQaLWJNVr/j1SezMGA9mUXU2u506nsWzHd1EzGHgYV46H04PDmDF5Nc+TVFAxkL/6czsrVqyv0L4OJmuPDUl1P4Zd6A/c7L0YwsepAiRslermjBRuUnsSjLPmHiQ9SsqYl3/S6mFjIVtbMVErqOYfxIfid9uZK2sPdho/7TzEVs78OfDEHZMrqRakoVuYu2sbVirDa9Tx7rE3T2YqGg/dlCeVxLIFtQQMZ/Zt/mTQZmkz/5kdUXebOp1fkRTfbK7RkM7JF+bwrwsq7Hf7vG2lDxmv9eyZO5Dj7KY9OoyydM/WG1RFTYrrQHScvDrFvmJmO+8B/wplHVKONifOdj2YnsTOK8PW1kHkQPrvO0df4pllmTsw+Z2qYxTcmXH+nPbkje2Wp8Vs+tTvJilz3R2Q70Dy5VJ1w5idmOaN7OoOI1dz9De2fXP7OqTdHQwcxI1ZMuea3igp6LL7j5UZ6yZa+z+vszJoTvb8SGlReLZ0cHFmVXHbewD74k546CUk3x/PqtpWYwNOBSX2rfchqj1raSbbEZlC1ZKbiNJn7M/61oyz2HHWFSGzpB8aSIrI2qstJsy6ybp+mAWemZ2/Q94/FOeA3kbUiLQgoGxCCJRys8MRVJ96rpw7b8I4yoWQnxYOBKtWmH2jEbgzmwNSRuiOr3RurgOWPJd3LqvaSpIB4UKyfDg+m3wsQgxJ0ejtBlfXGHbBKue8vzSVwh6LYVOmQaob6cDWdAGdChbFZ0mbUJAtFyoNpzr1IebPsOHfQPhVbElxqy6gFAN6wxYfBzi+VSNoHARFMmCoJZ1e6w+twUD3AvxzEYo61Uc8W9CEKuY5uEyBYVRtXVzOPLTOtb10ND7A24FvFW8kQo4O5tabeBnLX8VdUSD+m54duOOcipQAyF5eYWLyBdIMcTHxtHCSY2M6CAR+FYEDFGm73pcfnAZG4eWwft/h6OWd0P8eiaCL7h+j3v3Q5B4fiLK82l0S0v+s22IpU+TEfomNKMTMLUCWraN0NQrGqeO3OChJzzs5CgPuSvTDI0dMgxKvPzAR+EwKl8RbhrnNKV4cfsuYu18UDX1WgHMfXzhKbuPgIc52VmDl3HnHuLsqsOvhEYh2YKXPL6Nh4lvsKGtg5KBpQiuQ44gPvot3salj7eQBN7CXSkPOame0aOrEsNDDu8GJuLBgtqwkfPkP6tKU3Et6R1C0k3Tq6n1CdfoOBSDvSAC4fIFacn3EPAAKFutMp9hyCrxsIkb6zCyRTWUKm4Pe7fmWPZQguSkpI/H7eQgHJrVDXW83OBo54Tyo3g4iDgZSVycwLgBBvSxw6mhvqjddw7+vRGKnLSUXLOsWfMZlc9sy/S110HpLkPg934JmlZrg3Erj+NphvZU5GcRCLgZhCIVORf+TExL2ffPrOvDoFetN4aUf4ApfjXQdcpGnHslD2TNkD7xPlTX8+XdB4iO2of+LiJVH3ZAp63hfKYjBOHSHHJQFajr4ocadrG4G/ACUnnfus/7lq9a39LzhG9lY7y7cwfv4IBWg1tB958u8Gk6DL/vvYdIDbZLmq5Z9cHc6ZkRI/2dOYFPGxkzLy/DGSFarrmHVQ3T3T2peWTvA3H3dbJykPlwH9cex6GlZSZDlUAXeoW4kcpkkMk0BbvJi2WQSmX8/7Ug9O6AfrXt0qbXuHHrVUwbAmFdzDu0C24LF2LFtjM4uGQoThx9hD2nf4WP98/Ye8ABi+Yvxf+OncKan87g0K1NOLe8MczUXgQEhQpBrgoS47lxnwUMcQjOrZmLNf7PkaClC0HkC4gd6qcNqlomMDdLmabSQpEi+oiPi1PF4GnBzNxMpT8/J+Rc4mMQx28ioUYjX74fdyIvW4BC+voFYGFqFlzpFBH4TgloCV1Qt++vqNujH/7XzQ+jxi5Fs/P95MMajBrNw+Fp1ZEWpMYXnZvaQT7zrjFpFUXjlt6Ytnw/bkw3x7mDT1G2fVPlgul0U/V8GpkXwJ1QHxt0qoKVH8bN6O2QX5fVAJdeK8W4rKWdxUI2LWjz4U7+kTCNiTNgOiUxaNs6dLdXG+S0CsPaOL1ujI/zMvDFczoZdU6rkIzpwufnQ1jcTJgmTqDNnTCZhAFyCFlfkxJorqa9ji7XIuWZxPkqvCUaa5d2MMEfU7tOgH/l6Vi4rQbs9YKwcXBP+H90GQ/FWDcQvVZL0Wf+WiwqZYZE/pzqME2VUWCKWrNP4nqrXVj352KMqbsS6ybtwZ7R5aD/UVkZDmTDOuhz2zKDOF3X3th2rTqOb1qBxX90hs+KNlhzeBlaWKhlZGIky98YNPDLtn9mUx9oe2Ps/utosH8Dli2ejhZrVvN+dhC/1jRWE6dsv1zfh2pVkN8DWradsOK/ESijZl0JDCzhwPt+jjiklqcFLfltoPbVag1oVLm1ULTVKlz07oJtq/7AH/1rYGXNhTi4uSc3xRV3f/o7OZs+mKmeNhqNjwytTX9mRuDb0WPvsOfn8djxxhAV+CKiopIHWDFiFs7HpldVxt/m5WNY4sPDOP6YD9Q6xeGeqQdFB66leSybQIa49wwlu47F5MmTMXnicPTs2RuNnXmPT4pAlFE1DPp9L25cX4lm3KWe+OQwjnIPgzQqAlplemD2v5cR8E8P/uCS4M3RQ7iZwW2gbWsPW16U9NVLvMrUpcBjwvfPwNijIozYsBt7d+/EX4PLpX94yuIQE5vyGipFTEwCN7qLqB5YDHGxsSrjW8bfmmOAwsLMPeo8Ji/oJV9AwV9MbIuKsnjoZdYV6DgRIAJfjYCuHar7FgeCniNIag43N0s+xj1DnIMrXF1Tfi5wssxqLYYW7Jt3QNXw/di+aTv2PK2E9i0dP773BeYoWcoaMZf8cVPjnqzaKFbGE4VfXcIlxepxeeIzfZfP476WB0prdotnQKUNR3cXFAq+hmupK8QyZrGAyEKGF0+fa/zYjnZxd7hoPcfDNyZwSWXAWZQoCmGGcFsdZxcUQyCuXudf99XUaHou8HABHj8KhbV6WS7FYV04E7PlU65Rl63nymUyBJy/ggyPsXQayt7exb33DmgxtD8aVCwFz9LlUELdo5OaW4Ind+6DVemF8e2ro6xnSZQvWTSDMV0INhU7YtLf/tg/xh431m7CtUyfSWlqZM3689tSU5NoGbmg/qBFOHBmORpG7cD6g6Hp207LHM7FjBBz9QLupXu3yb5/Zl0flTY65ijdcgxWHvfHbO8nWL/BX7FhQ2ri98mn3YcpJXBuHq7QD7uPYN3iavexK1zsTVNfpLPloCpO9vY6rgfrw9XTEdp6/D50533rwpW0WW4+I3P+ShQsS5aESGXJGTjUQK9ZO3B2a3fonVyL/x5Jecy2IY/Zj0FUTNqdkpM+mFM9NbU1HdNMII893FHY0bM4DqhL0W+KVfdWoBp/U/9l11voeU3G0vXd8WBAVfTZtQbjFrXFySllVdpK8XptW7jsN4cgIgQfkgQwrtsDbeSGs4YZIe5egU3r4ei85BzWP9uGPl57MMbMEOKoD5DWWYnAfzrC8NIsVG+7DXBwgkgvAo/5VKDAwI6viJbh/vIWqL0kDEWdbFAk5hmCZQLoFHVQGNfqScumHMpaaeNCyHVc5oZ6g3KaMPLQjshISK3rwM2Un094iP1H7kOSVBNJKf2eT2Gd3X8BEVX8YPrhFI7dskDZPta8FvIMUjw/fgB3+rmjfKHXOHXyEVyqlIGh5nbkPG7g0m0x9xCVQvmyWT2kMyuAjhMBIpBXBBIvLsLw7RJUrV4Ojma6iH95BmuX34BepXYoq6cH2159UXbzXAzsI8SEHj4oqhuLoCcMFXs3gUuG8UGu6aAAACAASURBVEddR4F1M3SuPQVDJy+Fjt9itCiqyYeii4p9hqLqpl/Qr2cR/NLXF/a6kbghN67dlKUZ1h6Ivi6NMLfPeBSZ0IIvmjyFxZMOQ9hhC1pb8zIzcUqr62JUrxc62LTB7D4/o9DoBrCOuY9D/8q/ZFlemY17r+vXtcHStRMx3XE46jroIfxOGHcqOCnOa9m2RP9Wi9BjSjeMSxyGJh6mkIY+QrhNa3TwMU3n+NQq2hw96s7F0J/74DfpMPiahOHytus8pMJHKUvbA537+2Hl6DHoZh2OgbWdUZiHqzyIdUPPNmWhcc71U65RB6Dtjs4DamHlqOHobvELBvg5Qi86COIS7VBHzamuZcUNMKMg7Fu2Dj4DKsNWPxRBkeoFpfybG5puJcAWbcT87TZo6WoK9uidaucanicpAP9teASz8i48FDMUZ+7xvWnlGwhk8j6hLiE71p/blulrI8Ork3/jREIJvkuJId8c5QpeJuqjmKlBBme2Pqp1agf7rcvQt58hJnSrDGvBe4Rol0ebbPqnFrLuO7LH+7Huqh5Ke1hBL/IWbvKXQmM3Ex5Iqp70UOUT78OUUozq9UV3p5ZY0HMwdMZ0QHmRABHPgmBUuxtq2SEbDhLc/XcBVpg1gmeREBxZNBsXi3bCrjp8dlu7BDoNaYQVQ0ajv9MM9OehuIGbZ2BZcAVM7lsZeuwDLm7dgXdFy8HJWILgC08Qo2UKU75qUse4NDwN/sD2PzaifGcnxAZLUaZ5Vn0wp+2lqc/SsSwJZBfr/imB4cqFEBoWTcoXUVp2Z7uirrPplc2Y0MSDDT8erVBBEvg7q20pZELrxmzlsyTVokkhE3l4s3LFRMzCyoVV67aAnQlVLer5aNFkWk2Sg4+yub3qsNKOImZqYsFsXSuwxuP3sRB+afTp2ax5ZTdW1NKUmZjbMnffjmza/hd8WVEyu7msI/P15IuTTE2YmTXfA6DlOLb1fsZVHnI58ezkSHdmYmTKvCZf5deyjxZMyhcyht7byob4erJSVeqwRm1HsQ17fmfNSxRnVbgur0IOs5GlvVmPn4ewptUqMM8SnqzuuJ3sYZh88eUbtq2bA6s5aBLrXd+HebmVYGWaz2RHX4RplCOXFbWvL3M2NmJmVeewu9mtvMmu0ek8ESACmRLI/ZgoY1HX17HRbauzUsWsmbmJGbNy9maNBi5hZ9+m3KxSFnpuCetfrzRzsDRjZlbOzKvpb+wCX5CSfgHax2rFHhvKXE2dWb/9yrFUkeOjRYEyFsl1GNHUiy8eM2WmFrbMxas2674qIHVRofjVMTa7SzXmYmXORE7erOXEHeyxQr6m8lTHM/wnIXA7G9esHK+DObN282XNa3sw85RFkzyvLPoGW9WvFvOwNWMmpiJm716R1euznt1PwRAfyP77pS2r4so5mVowO48abNA/LzUuApeFX2BL+tRlZZ1ETORQjjWsXYaZ2w9gh1MW3Mmi2K2/RrJm3s5MZGbK+FZrrO7Ew8qF+R/xUVUkq2s0LJqURWxibURubPRp+VNAXkEuc8Mo1rS8E5dpzmxcq7JR+8KYON2iSSl7c3wW6+jjwqxMjZmppS0rXqoq67Xh6ceLJuPusI1D67PS9hbMxMScWTm4sfJ1prHT8kWTb/exMX4erKi5CTOxsGOl6vRjK65GZlhAqXlxn0LXbFh/XlumXzR5a2lr5s2f46bGpsyqeCXWetJe9kK+kPajdohndzf0Yz72poxvYcfMbNxZrRlnmbwbZtk/s6lP3JmZrEFpB2ZpYqwo07frXHbqnaatBbK6DxXUVClzrsnBR9jsbjWYR1ELZsptDNcqndiqu/LFmnwziCw5mDOP2s2Zrxvv+5YOrFyzcWz7o5QbkF8ui2EBG0awRmXsmSW/fz38+rAl58OV94bkCftf76rMxdqMGZuImGO5JmzU5vuqRdbJ7Mk/Q1ktXq6ZmTVzq/kLOxGdVR/MQk91BD/4v3P/HGBMIGeWlUX+6NEjxdTI100SBMyshlrzHsF28EHc/M0n8zjGr6tYqjTxrV9Rvc4CPLTohC2XV6CyNCJ3moivYWb9SdD/cz/GlsroIU/G8VE+WFNmD7b2UotDz0yC7DV2922I0f4MNeZfxp7+Dh9PK2d2LR0nAkQgVwS+zZiYKxXzSWYZXq9uDq8V5bH/Ct82L9Ng9C+hLsPbdS1QdmlZHLj6KypkHFK/hIgfuoyv2ZZ8K7ugVWje8Dy6n9iA9j9C3LB8P/JKTXFz0A3s7V+Unt/fwb32Kc8BTfOP30FVv72KumUHYWJLa+DtTvz+v2ffVKGk6+ux5EwcdFx64eeuZGx/08Yg4USACHwFAgkI2LEa/x4+gys3r+PMznkYsegSbBs2Qkkytr8C/7wUwX2AFnXQxOUUFq27k5NoprxUhsomAl+MAA1Nn4pSYIHmc5ZihmcymvUrDkG8fHuvLCcLPlVSttfpVxyFTctscKnEEPhkGuSdbTGUgQgQASLwfRCQfcCzc/9gzv5AvI5IhK6FK6q0Wootk6vmgy//fh8I862W/KuIk+v0w+ZQB3QY5pAhzjrfak2KEYFsCeTTkJJs9c53GWJiYpCcrGHbqK+gqR5fdMU/MvQVJJEIIkAEPmUqkagRASJABIhAwSHwKc8BCin5Qu1vYMBXXAtysDz8C8lLKUYuUy6bEhEgAkSACBABIkAEiED+JEAG9xdqFx0dHfBV1ZB7m7+G4S2XIZcllymXTYkIEAEiQASIABEgAkQgfxIgS+0Ltovc8KXQji8IlIoiAkSACBABIkAEiEABIEAe7gLQiFQFIkAEiAARIAJEgAgQgfxLgAzu/Ns2pBkRIAJEgAgQASJABIhAASBABncBaESqAhEgAkSACBABIkAEiED+JUAGd/5tG9KMCBABIkAEiAARIAJEoAAQyNGiSfl+g5SIABEgAkRASYDGROoJRIAIEAEikBsCOTK4XV1dc1Mm5SUCRIAIFFgCn/LBgwILgypGBIgAEfgBCXyK04VCSn7AjkJVJgJEgAgQASJABIgAEfh6BMjg/nqsSRIRIAJEgAgQASJABIjAD0iADO4fsNGpykSACBABIkAEiAARIAJfjwAZ3F+PNUkiAkSACBABIkAEiAAR+AEJkMH9AzY6VZkIEAEiQASIABEgAkTg6xEgg/vrsSZJRIAIEAEiQASIABEgAj8gATK4f8BGpyoTASJABIgAESACRIAIfD0COdqH++upQ5KIABEgAgWTgEQiQUJCAsRiMRhjBbOSBaRWAoEAurq6MDAwgI5OwX9MFoS++aO1WQG51X6oanw/Hu7ktwg49h/WrzqAx1JNbcQQ/fQc9m1ejS2X3oPx/0U/OIKNS2Zj3u6n0HiJpmLoGBEgAkTgCxOQGzTR0dFITk4mY/sLs82L4uQvRPK2kreZvO0ySyzmItYu3o8XSZnl+AbHk4Nx5I/VOBOZs5e6gtI3c9RmLBTHli2D/9v8YxHIws5jxZ+HECL7Bn2FRH5VAvnE4JYgcG07eNp5oOXyuxBrQCAL2YmfOvXGqF/34InG8U+Mq4u7o9ugiVhzMQIybmI/3zEFoybNx9+XQvnflIgAESAC34aA3LNNXu1vw/5zpMrbTN52mlMCrswbgSm77yNGc4Zvc1QQj8CDMzBi9jnE5UCDgtY3M28zhg+Hp2HE/GN4mpgDMF8rS9JLnF48Er/sDeduQkoFmUAeGdwyvFhaDxZCIUw9huFYutGIe54PD4KbiRDGVt2wI16ONx4BJ8/gdfQbXDh+A1HU6wpyn6O6EYEfjoA8jITS90kgs7aTvf4X8zbEo8PUIShdKH3dxOd/QklRAyx/qXT1iIMOYWbXGvC0t4S5hS1KeNVDz9/PI80JzRB1exumdq+DMk5WsBDZw7N6e/y0/grC1JyxSYcHwMHaF5PPRqY3ziS3MauKFarPfwiprhv6Te8OweZ52ByUvasps/p9n62l1FpjnaSBWD93J0z6TUc3J21FRmnYFawb1w7VPe0hMrdAUddKaNx3EU6Hphgh8Xi87zf0a+SN4taWsLR1Q5UWw/HnqVdITgUkwZ1F9eBoYQJjY2OYWhaFS/m66Dp5K25HpxkzmfWB6KLtMW2wLQ7NX4O7Gp2J33NLkO7qBPLI4JbiTfAbRRiH9M2/WLzlZZqHWfYCmxbvxFs+DjBJCF7L/wEhmk5ehglDf8Kf01vDXECNRASIABEoOATIu53SltHY2ff/7J0FWJRLF8f/uzTSDSIgEpKKGKCAgqLYYrdi57Wv3Xnt7rp2oF4bDGzFFlAUW0QsQDp3d755d0GJBcT6EGfuw+PdN2bO/Gb2zJkzZ2bt0GTpQ/xK2yI9bBlaNRiN07G5vTlCRO3tg3rdtuJ5EfMh6W0nxLN9/+KySRf09ihXdEelht7Knj2xItwE3ef9i/37NmFefw9U0FaHinisI4gLGgefhkOxN9YJ/f7Zgl3/LsFfbpk4Ma4ZvIceFY+Xn1NaKFb0HozdkYWHRSjV6IUe1jewbTc1wIuWrlSuvJDEy5jq0xSzb+b10Wc+Wov2nkNwNA+QghWU1mZZt7Zje0QN+PVwgDx9RfTuCIZ6N8P44xmoNXABtuzeiVWTO8ORn44sRa5hUnB7fit49ViPpxU7Y8aGHdi+6m80VrmKOW3ro8e259mr8XQVJO4jUk26Yf3J0zh5YCvmD6qJhP1D0bQzfVdsCBXVB2Rh3a033F7txLZrpSk2qSBXduX7CPwkg1uAd29jJEY2ScO1DZtwJ3s6mHFjAzZcp8urnNyi94h+z/VGAZ4cWIAFKxdi5s6wbEWchkd7R6OFkxn0dAxh13YtHuXT0KIPF7CwpzsqG+pAz6wWxpxKKn5JJv05jkzriNpWBtDVrwinZsOxNSSRKp0P2NZaH+pqOmi0OlIse6J/Nxiq66P9rjiarwiv1/hQr706DNrvQqzoI4793RDVK5tAn86MDSo5o9nwbQhLkSh0UeQxzOjVDK623H1tGJhXQ999b2kuVLneWIfBPo6ooKeL8jbu6Dr3FKJyFL4wGmfmdkYdK0Po6Bqiol0ddNtYvNL8vm7A3mYEGAFG4FcQKId6E3ZjcYeK+GVbEbOoZ3OqP0xGjEeDPN4cGRi3nYre2IDp+6NKFnYoisLpgAcw82mCyhJnaeHwku/g2n0R3Ecux9guTeDl1Rht+0/GzO72EgZp1zB/5Ea8r7sIgYcXYkiHJmjYuC0GzD2AwFWNkbr3b8w6k2uZWM4e7hbXMbbfSjwozD6TqYhGja3xJCAQz4uzuAuX/P90Jx23VszAlVqTMLxG3smMfOVemNYqEvPnBSKuRCvhAtwPOIW3VZvCx4iaPSQBAdPGYG96M6w5cwgLh3ZE04aN0KrbcMxbPwEN1KhV8nANRi4Mg+2kIzixehS6NG8EH9/emLrjFHZ0V8apSRPg/+6LEDwVU1StVRMuHt7w7TsHO+Y0A4J34fAz2gDF9AGerjeaVo/BqZP3pIbU/p8aghX7gwn8HINbFIeYOCEITwl6+moQPd2NjWepwqCd/NTGvXgBPRjoUS1Fn/sYK10bJJ2bhPYDN+D880TI0vCT1MhIxOee5QufY2Pvzph5MBRvheWgIfser95lFG1wkzgEjG5Jl/JO4mGSKgy0BIi8tBnD2w7DwY/acPd0hBzt7uF3QkHnuAi9fhvpJAMht8Lop3T67wNk8eRQ1dMNmnwVkLhn+CCi+RjrQDb+KS5uGQ6/+XfEXxjBs9PYfvAiwqPTIK+pCfmUBMhpaEL4cCU6+/6N7dfegq+jD8W4MByd1xWdFobQJSpqjB8aC795x3A/vhzMKltAR/gGSTwN/JyG+sG9iWXHCDACJSAgxNtzC9G7WX141vOAp+9IbH+QItZhJCYAI+o1w8J72cGmqTcx28cTY89yk3+CD7u6odrgNdgxsiXqujijZuO/sPNRtvVF9ezBvtUx5PADHBrbHK5OjrB1+Asnsp0eJOUBdo5pj4aenvDw8EHPf4IQnaOGqY68uqwPmtSrK5bJu9N0nHid4+kQ4s2p2ejaqC7qedZF3cZ+WHIp27FSXK3TT2FsnRqoUcMF9Zu2w8i9L/J4uDOeHsD49g1Qtx6VidZ7yMa7SMq2ZUhSCP4d3hIeddzh7lYfHaccwXNxXSiHnd3gMnQFNo7vB79OTVC3YX9sfZA3QDfp/Dpsz2yDgY20UWDxVKYC2g32xssNm3GrMONVWt0yQnDrgQIcna2KnzgomcFcX4S7/+1FWK4Qg5xsM4P349BrY3Qc2RGmeWYhMihP+0Q3iw84svf8l3hsGRN0XrUard/RUIfZ15AsTT7IwNy5KlQjbiNEHLZZ0iTCh8vLMKCFFzxq14SrT28svfj+s7e88Dah5WSex9+uXfFvyGnMau8O5yp2sO+2I9tLX3wfEr3/D6sP6aJ7v1oouHYgD5seA+B0bQ12ST89QXpFSSzu3YmEftWqMOAG06Qz2HM0BjZ+o9HKSNqMSYAHB/3xQKU5/upnD6XcufK04DmyP2qmncPekx8KtTmUNNWhiAy6B4B25GL6AHjaqFqtAt7dvYv3xUcBSa8ju1rqCfwcO070CbGfaK/h66F5/w4w4VGFsek/vHlzEJuOx0CuWh/0dZEHj2QiLlaaVzoRp7fuxSsBH2Y99uL+kwg8vzwVznJfeArC92LrFWrEl3PDnCuP8fjpM+zoqFWkYSp8sROL9lLvtX4bbA6JQFj4XWxqowd8OI7tVC7juvVgKUuQEnIbEekvcP0Gp2BEiLl1Ey/SH+NOGB0MZSvDs255Wo4Smq5/gpf3g3Hm+CmcWtEa+jwBXl4LxptcXxhZx7E4E/EUkdHhWOJFcG7lMgQny6Ha+CBEhN9HeNB4VJXNwP0du3ArS4T3z18ilfCh0XA2Tpy/hJuPnmJ/D4OCA0Wp71pMQEaAESiKgOjtfkwYHQTzif44e/4sdvbMwtoRKxFKZ+w8nUaYPNUBAVNWIyQ9FbeWTcWFmjMwwUtLrAtkZWSQevEMPnTainPBl7Cp0UssnHcI7zkjlacME1MV3F4yBUGV5+DkrVCEhyyFD7eOTg2A20v/wvJPvlgXcA4XTsyD47XxmHb4o9hwEDzahjknK2JmwAWcozJt6cjD+UvPJMZx5nWsnXEP7mvO4Py5Cwhc7IWPQde+7nQFxYb458pN3Lx5FWva6+fT08k4vXQBPrTdRcukMh2ZCrtHQbgtDnBOx/VFf2GDqDd2nbuES2dWwzNiOsZtfyk2/mRl+Ei4fBsK/VfSkIAj2NjiLZavC8q1WTAV145fhE6jJrAqxKWu6NwUDcgZnLj3JSqXI1VUEn2MQnSWAUzK5xqUCntB3gV/rxsPp4hp8HRwRYexa3HqSc64RxD7/BniZOzgZCduoLxJ1hpO9gpIff6UOpa+3OJre2PO2n7AhsGYdi5fPHf2YzIGxjCkDpvX33Aih+gdnQCNuQybWUdw4eo1HJ9QHsdGTMdxsVu56DYBncRUNHiEzRP3Q3XkQQSHPEDYti4SQ7fYPkR5nDuJuzbNJJ7o/DzoZ55GPTSv/RYBgU+LDZf5/LrwLWiUK4xMytOpCI3wiHqK5xmqcHSyEH8umOhY/vQlYOUEB+WCd/kGjnDUpwcz0Gfyh0aJMpPxLvwkFiw6gngzb3hb045XZB/g8peBobER8CYSb6T7IAsKwa78dgR+jsFNPSyfPtEvJl8N+t490dVeFikXNmDGjM24nKoCz15d4KSpQgcOERLiEwsu5Qle4dHjVOohV0XtJh7QoiMMT14BcrncE1lPHoJbqZG18UYjc27Higzk5YuuTmbYbYRl0uCQd/7oYaEBNXVzdPenJ5gQAe3n0eDZNIBnBRkIX97GrcfBuPZICFV1VRp+FYzrT27h1gshZM0awNuKfkWzXuK/MQ1RubwxKtnaw2XAAfHMlKQmU4NZSj+QUYAC7znuhHyi5WXizpw60KObSnVdZ+NuFqGbNyIRlU69EvUbwlqR7qY+OgDVarTCqHVXqRddSn7sEiPACPzWBJKuB+GOVUf41dKkBqgcjJp0R6OMCwh6wg3hPGjVo4aw02lMHDYcUy7Xwayx7lDPpQNlrGlogjP3rjJsGtWHIXUgPBSHpvGp3lJBvLYPRtN4VQ3OouDzJUauIAJBF9Lh7dcGFana5KlUQfcO1rh5NphuXef0rCLkY+/ixMmbiEzkwbjlFMzvbC3x4vIUoSj3BleOnEFIdCrkbLphztTmKF+02v2KNqLuC6rznl2gxt3DD8hQrYGBC0ehniatbNZDBF0Uon4nHxhz9qiiFVq3ssXDi8GSDYf0vGxZRx80MeVuysLU0ozq93fg/D3iJHiB+xEysHM0K8Swos/I2aKqTQLCH3z9aVYkLZXyUoSSQgGfeXbBuf+hbVl7NPzvhOP8qm4weboePWvXQJuVd7/qFBEpGdJLPJRzGYfVf6li1/BpCJJyBCBPSZlKmIZUzsNaokQPNrgaiFsWvujswI3TMtDymITDQYvQ+GvahI776iopkHUbhIEuurRnU2lpO4lTsX0oCxFhj6HnYCce96UnRdhVrYTI+xHiPvtViYa2ptLDZhSVFCTOKx6f/kv/K7SMr8o1z0NZ92aghqYaNOimWCvXbthOOmP93omopcg9Vlwf4EFJmT6YTuUsaXOVXFT2xv+JwHerSqlyixIRn0Q1HjWY1bVs0LmnG5Qy72H3nhAI9FqgVwsDuptXlXZBgqQEaR7unFyF9CzUYqzNrMxcu4WlSvP5IhHQMBf6ScbAHb1Gj8GYMTl/o+jGFwPw5arA20sfPCpr0OoA3BRUQtfBzaCTeYvG0p3B3Uw+jBo0hD31gsf9NwnDNt5EjL4Pxi3fhA2Tm0KyMsUt+BaSCPWXC+ldngJsfUfkKp/KMaI1bOkAqOA8AUeOL8eQRhbgvTiHDX+3gvewEyWMVyukfHaZEWAESgkBEZI+xSP93jK083CDmxv98xyOY8kpiI/L1nk8Nbj2bAW58xdQzrcbqudbX+dr6tDQNkl1+CoqUElLRnL2q3xqUGhVtoFhfg0v4pwhMTgy0ktSpps7Wi17AH7yJ7GRKlOpF5Yt8Eba4aloS0MJvP1m4ejT7BANOScMXz8R1V5vx6hmNVGr6QAsCXpTwMNXcsDK8Jq4EYNNQrCqvzdq1GlNywmm+2RoTtR5E59ET37QyKkID+o0RI+XmIDEHEyKylDKMZyoBcUj3E6Z7ERXW2PiNaCjnR9Ebinl6akgqoiP4Y6T/brE48rkwgUyCtH2YhnyGXRy2nBoNhgLDlzB6YlmuDZzPLa9JNA2N4emMBz3HkjxsNMJ0j0aqK1U0QKGBVyxSqhK48KHae7DqJnnc514IqkDoSsj6dykQLwBsCSJGtxx8RBpUKfU51flUU5dSeL0KrZNuHrLwcrOWrw5MU8qtg8J8ImuemvoFrVazYe2ri5ANyrmCTPNX1buz9TQp79hhIx0SdipjFFFmMonIfz+q0K85LIwq2QKPL6HB1JOhRS9C0PYe7oCb2H6OaRItnI/7Lx0BZfPrEKHCjRiVrsqalYUW9tfktQ+IO7oNPSEfs8UqZwlba6i6s3ulSoCRWmhbxc0MxGJnCKiS5vllGgcWuueaKLFFSUL8w5+8FSls7lyylQdiZBMf1iggMqSrQh7GzqzJik4t2MPXfopKIq8jb14iVAQfhDbr34qmAd9hU+XXWm3R/zr1+BC5xRsHcTviOI/Qb52H4ydPBmTJ4/FoJ5+6FrPkHqAFOHSpAF0eQkI3BeARG13NOrVCHXKxePkvlNI5BuiURNnqkREeCcO/eBBw52eDd6zHdr4OICb/BeZZM2z65WFmLTy8B0+iZY/GRNH+sGvX2vYU+0kTIgD37EH5uy7jpC9PWDGFyD6FF1iK2IXfZFlspuMACNQCgnwoa6tBaUaY3D40mVcvsz9XcGN2xcw3S3bTBG9waG5e6HavRvkdszGwei85iBJSfxsYIuSkpCsrArVXBpdhv5CYgGVxNeCjo4B2q48l10mLTf4Nm7/2x3G4nflUaFef8zZegLXbx3D9CqhmD51HyRFU6+qZVMMX7QLZ24Gw3+EAc6MmYuAH3AINU/TAe3GroD/xVu4uKkLeLtGYVkwNUD5GtBUo5OEz5YVPT4v7hOgoQX1Hzx6ffbCfkVv4dOj34xk3yEqOn9AAfcydSTRMSeOTpg0vlisuXJVgrVHLRgJI/E8SkijDdqilfFr7F68h4ZR5i6cxjsfWoztj3XRvH1duo4hJSlUwbBlQ6G29x/sfJU3FkH47g3e8Y1QwaCApS4lo9yXeFCjnlpeXNwXI56k0jHvFWK5sfir2oSuPMhKK7e4PlSgxxYua0nc0zKG4CI2ol+/lRjYanXRwlMZIVuW40yek2tyipOFnW8b2CYfxdL19+k6Qa5E9zmcX7IW1xU90d5H7/N3jKdoACt7BzjW7IrFa/tCI2AsRu0ubDNu3j5AR368i3rLxbxkO+4Krza78/sS+MEqSwKCJCchhRsbuFklnV3zNBtjwF/N4OnVkRqnzuAWdRSVFCUe7sRkKV4FFXgP7gcHJRrPFTAcNStZws5rFo1x/gJaxror/mpKvdFZ4VjdojLMbRzRay+3oSgn0R3oluZQ5tHZ+rEh8BhzDlnid6gnO+M+1raxg2nFSjA1MISFxyxcy3YuKNVpDm8dHv11MRHUPRqgpk5d+NRRgpD+2hjfoBGa1ZKEr5jQJS9Nvgix+wbAo1FLtB2xBy+Ljb2S1MuR1utDwBi4VTJBJXNj6BtXhd8u7mQUAcJXt4S1mSWqutZDCxr/9lpEFVd59iX8fb9iTHJGQDoBFRdv1Hzijx1hyWK9lf7iIGaM3oxQsYNBiNd7J2FlVl/MHjcOs/1SsXziHuQ+CU5wPxAnxd6IDDw5ewHvbKvBtriQYllL1K+niDM7AmgMMldMHK6v/huzA99R/UN15YW56Df3PDgnO2dAVLY0hARUoAAAIABJREFUgBJ1XHADhejdUUwYsgp3uZOYZFRgbGMJHUU+aBj1l0QnCbv61EH96Ze/euURwifY8RfdMPqMq4scNM3tUFGTlilDjS9ZGzSoJ4+gPYEQ27bpj7D/vwg4NawDja+xzegEQ1czHjFid3lhKRMxH4rzquZ7V9ER1WzSEXr3CdXaNATwxAR0GbEc+7hj4fb8g8FzzoJfswFqU4ObJARiRp+xWLrjCM7Q1Yqz/63H+PHb8UKtFlxtqAdIqQ7GLekD/Quj4NNqNFbtO0lPQPHHuvFt0WjwCSh2mI/JDakBXIj4ilWGY0G/CsjMEzoixKu7IUi0rAZH8cpIBo72MoRuyy2SOP9C8pJcpga3awM4PT6E3fe5TbwifLo6H907LkIwV8Z3tEnxfYiGr+ioI/5jUasNdNz9+BE8Ld3PKzxFVoe7ydNB1Srl8e7ePUmIJk8XvtOmwit1J3o27IxpGw4g4MxpHPffiLkj6aoO3QwhazcYS0bbIXxmCzQZvAg7j51C4KHNmNG1Ibr8mwLvWXPQvsASkrgwqLpNxOJeWjg7fQoOf6Sr3sX1AfIJIfcioVulSsFVqWIrxx74XQgUso3k+8QXpSSD08k8Phfzx+WliJojduDwiJx8RVBUVhIb3JlJyVKPwVFyHo8D/uqYOmczAunu4nfp8tAwtoN1reowFsckGqHd2qPgmUzF0gOX8ejdBzoG6KES9Xx72KjTAYIHzRYzsHxAEmbvvwVlbV3Icu/Qn4aXNZ+GxfsuIuLdJ6SpGMCmagUocoMPZ0sre6AtNcp3bU2CWyM3lOOrw6upKxTpBiPd5m1RO3uFSMVnFjZPzsCUTWfw4MYFPJMrBy2zKqhZ26bIgUCJhowc/E8b02dvpJuZXuFTIh1gzKrCQpsb7mgst7opKmu9weMIejyigg6svDpjxJwhsJHmLPi+ZmJvMwKMwP+RAE+vFWbMfYHxfzeGOw1G5SlVhM+wWahM9ZDgxQ5MWMPDgJ3tUYFbqesyA33OdMP4bbWw1c9cLLVcFVukLu+GZg+iECtfHaOXtqSrc8VVSB5Vhy7BwGmT0cVzATXraeiJczdM6cJtZKSGVvXmcDs4CW09Z4AnQyCjUwtDZ7SRbHjTr4MWlY9hcjNPpPFlQBSM4DlxDhrkCXURITUhBnGaJViSkzGHVwsdjBvcCJuzZKgUSqjUfDZm15DMHqqPWIa+dCWws1heeq/pHMxtZ0TlLbA2WrDy3GqptQhBoXSTZV0r6XHc1GkT8lAddr30xBOLr0p8E3g3ssasowF4OtYe2qp6UA7fjLG7opAkow3rusOxZUEvmNIMRRlK0JB/hD1z9mDu+yQIFXVhWcMXi+gvIftmH1Oo5TUPJwMdseCfDVgzehvepslBz8oFTWcfxd+9XKBXpGBKqDl6Lroe6oDbOcKLXuNUwCOYN1qOSuKxQ4CMDBEU6BG2Up3u+SrNN2qPufPfYOIYH7gl0bZUr4KOS2ejsXiWo4DC26Roevxi+5AcrB0s8eHYAxpG6Qg9qf05HQ/uPYOpfeW8p4cUWbQsHHy8obeRTmbe90FPaijLWfbGjtPlsWLucuz5ZwhWxmZCRqM8bF2awzadm6CVg/Pfh3HWegnmrdyOyf5RdJVbExWrN8TY/eMxyMtYHJ8uPamgztgZaPNfd8xaegONhhXdB0hMEE7e0ELDodWKyFN6Sezq70OARw+IL1JrPX78GFZWVr9PjZikjAAjwAj8RALfohNjY2N/oER0D8leP9QLao3gdS2khxr8wNJ+bFaZuDyxHuYb/otDQyylG8A/tkB6AtwoNFxigs2Hh4FzKOdP6cHT0GiCDBYGTEaNAkHHkqe16W8p5E+i1xvRymUFrPcEY4F7noPj8j/6yz9n3JoCtxY34HflBAZVpNa68AHm1W2AS91v4mg/4zwTix/bN7+/quT9XvRqegSeh7eju5QduST+BIY1WgfrHQcx2LJwT1SBNhPcx7x6DXC8+RkE0UlS4cby99ehZDkI8XS5D9x3uuPk5SmoWnoEK1k1/rCnv2UcKHLe/IfxY9VlBBgBRoAR+OEEspCckCoOvch4fRr/XRHB2lZyPNsPL0pKhqp1+6Gbgj/WBMYW9IkLX2P/qtMw6+MH50KMbSlZii/xK3TG311lsGvGuuzTYQp78hdfFzzDlmlbkN7hb3TjjG2aSOx93I+rjXZNuZWB0p14+i0xyPcj/qUbZ/P+ziQndyYe/rsOd10HopNF4ca21BrK2qHvmGb4sG4G9kQVFWIk9e2fdlH0loaSrXgB79H9UYUZ2z+Nc2nIuLR/90oDIyYDI8AIMAKMwLcSENFf0Jvsg5r29qjuuxQfm8zD6HpStwB+awlFvydnjV7T2yJyybx8G+ToT7sfmI5NpC+mtsvr9S06w5y7yqgzfjHG1jOGrLS9k1+XyY9/SsiHQZ2RWDLRE6rZufP0OtC9Avukeox/vADfm6Miqg+lHvrrs7GswE+7b8a0/ypgzLiGRRwbWFj5PGg3n4GF/Z3pT++VHoObnlMDx17zMZv+0rXUCJrCqsOu/3YEWEjJb9dkTGBGgBH4fxL4lqXEOHriQzHRe//PKrGyiyDAnV6ipaVVxBO/962y2DfLepv93j2ubEj/LeMA83CXjbZntWAEGIFSTEBOjq0Vl+LmKVK0st52ZbF+ZbFORXZSdvO3IMAM7t+imZiQjAAj8DsTUKK/ulGSc55/57qWJdm5NuPariynstY3/4Q2K8v9sSzXjRncZbl1Wd0YAUagVBCQpT9Co6amBnl5eWZ4l4oWKVoIzmjj2oprM67tynIqK33zT2qzstwfy3LdyrYmKcstx+rGCDACvxUBzrBRVc3ZxvZbic6ELeMEWN8s4w3MqlcqCDAPd6loBiYEI8AIMAKMACPACDACjEBZJcAM7rLasqxejAAjwAgwAowAI8AIMAKlggAzuEtFMzAhGAFGgBFgBBgBRoARYATKKoGviuHmzhtkiRFgBBgBRkBCgOlE1hMYAUaAEWAESkLgqwxuKyurkuTJnmUEGAFGoMwS+JYfPCizMFjFGAFGgBH4Awl8i9OFhZT8gR2FVZkRYAQYAUaAEWAEGAFG4NcRYAb3r2PNSmIEGAFGgBFgBBgBRoAR+AMJMIP7D2x0VmVGgBFgBBgBRoARYAQYgV9HgBncv441K4kRYAQYAUaAEWAEGAFG4A8kwAzuP7DRWZUZAUaAEWAEGAFGgBFgBH4dAWZw/zrWrCRGgBFgBBgBRoARYAQYgT+QADO4/8BGZ1VmBBgBRoARYAQYAUaAEfh1BL7qHO5fJw4r6UcTEAgESEtLQ1ZWFggh35U9j8eDnJwclJSUICvLus53wWQvMwKMACPACDACjMAfQ4BZTWW4qTljOzEx8bsN7RxEnMGemZkpNt7V1NSY0V2G+w6rGiPACDACjAAjwAj8OAIspOTHsSwVOWU+CYT/9Y8QUmk4z/b3erWlVYrLk8s7I/Is/C+8hUjaQ+waI8AIMAJlkQBJROjVUCR+34LhTyFDYq9jy6yVCPrwI4QT4umx+Zi5+z4E3yDtj5XlGwRgrzACpYwAM7h/cYOQT2cxzs0Mpi4jcfKjRCkK0z7iedgzxH6v5Zr5ACv6d0fvps0w+47EE/2zqpcZdxLDGrRFnx7DsCvqewX/WVKyfBkBRuCbCaSew+iqldBkVYR4Av/bJ/IRB3rZwLrrbkQXqbKEiA0/h8Db0pwJ6Xi0oSd8m/mi54ZHSP8RUH4gZ2H0WaxfcQj3k4us4FdKnYnQfYuw8eKbb2r/HyvLV4rMHmMESjGBn2NwCx9hfceasK1oBD0tDWhq68PE1gVNes/Cf4/TSiWOtCeHMK1rPdib6kFbxwAVHT3RcewehOcSVxR3FzsmdYWnoxn0dfVRwdYNbUauxaXorFx1ykDgQFOoq2mi6qQbyH2He0j46grOhsfhU8QZXHomgCh6I3xNLVC1/gxcyv9wiUgRvD84G8vupEOxamd0dJT/Kd7tzyKp1Ea31mbgx53G3EUXkFIiWdnDjMCfSUD48QY2jWkHd9sK0NPWhoF5FXh2HIv9EZmlD4iMFkxtbGFlUA680ifdN0ikCF3zyrCppAeloipE4nFickcM3fGogGc3K2QxBu8ww5JTS2C2YzAWh3yX0pbUocxx/oamYa8wAn8AgZ8Twy1KwuuIJ4iKA5S1jWCkmIWEDw9xZX84rl19C6XglWikXpTG+7XkSSL1Ovv2xtZIAQiPD1kZIO7VbZy6+AwT5CSyiN4dw7AmvbDtaTpyFuvSokJxeuNYnDtxEUuP/4vulbIfLkJ8Wcd+WDRbgNNCTwyoQZ9/K4JQRHP83qmP8Dn2bjyNBKKG5v27wpK2LMVfTMrE5UmemG+wFYeGWALP1qBN10iMujAX7vLFvAoluPT1Q7VNk3Fz/0Ycn1QP7bVLT5sWJz27zwj8agKid0cw1KcP/DNd0H3QQoyzVEXa+xd4cPUZUjmlU9qSQhUM3X20tEn17fLwVOEx6RA8vj0HyDkMxcHj5aCuykez43WRUq54nV9scWWNc7EVZg8wAn8mge8184qmxtNHl6338CD8CV492oGO5WUgfHsaAXclXgFByGp0dHeAuaEOtHWNYevRDXPPREuWr6iX4dzcjmhQywFWpgbQpV7nStVbYsy+R/jidCZIvr8b49q6wJLLw9AKtXvvwDNu/TP9OY7N7AL3yobQ1TdF1caDseZajNR446xbh3E8ikapqdTHwrtvERsXi+gH5+C/oifsuSkJicOxicOx/WkGZIy8MfXQbTyPeomQY/+glZkchNHHMW7kNrz+mlW89MtYP3Uplk1fjjNxueLs0g+hu64a3YyohTpzs2PmaB2OTOuI2la0/voV4dRsOLaG0E2QUqiLXgfg2L1M8DQaokNj7V/ikZKp2Brta1HLPOk8jp5LlCIVu8QIMAJiAiQBAdPGYE9aE6w+fQgLh3RA00ZN0Lb7YExduxg9KmUb3DQ++N6WYWhe0xJG+iZw8BmGHQ9SsyEKEbFzKFq62cFUXxs6RrbosSua6jQRYq4sQ5+GTqhooI+Kzq0w8fBL5PjM067MR9u6TrAypqt3WnowrdoMo/c/yRUOQfDp1noMaVwFJvq6MLSoge5bnkCYdROTnfTRbP0bsd4kMUcw3NUa5XW1oFPeBvX6rMNtqYHMAoQsawlHM31o09XNitVbYdKx1wW8xVyl0q4uQgcvZ4lsOoawcm2Hif4RuXQ8kBUViNl09dHBRB8Glq7oPPcc3mXrWhJ3Hv909YazpRF0uLLcZiA4Mx43VvaCR2V6jeZZyak1Vt3nopAlq4/63Q9K8qdjjPTnOMlEeLepJXTo5nA1NT10O8CNOpTztc0Y1cZZzLlSvR6Yd/T/yZm2SVIINg9pCHtjXega28Nnwkm8zz0OFdmfsrvV538EiAqchY4uFtDX0YeFayesC80VvS18gW09nFGJjrVauiZwbDwcux/lGo2Lk4Wug97fORotqtEVYj1j2HsPxNobnz6PZ5kv/sP4ltVgqqcNvQo2cBt9Ap+kDXb5xWafGYHfhMDPNbhzIIgyEB8djbh0Ap6sAcobSAYXnnwK3r9MgYJOeRiqZiE65DDm+Y3CPm7DB0lGxMUzuPEwEnECFWiqEsQ9OYf1A3tQozjbYH+yAV2aDsTqUw8RIyoHDbkERGYoQocfg+MjmqP7wqMIpZpZQTYNL69up17sdlgUWnDplq+mATWORMYLBJ8Lw/sMGZQzdoZX9fJixzP5cARbjn2EiK8D3382YmR9S6qItVDRYyDWLOsKYxlq+F/eAX+xpf+Nia8CIwtLWFpawkRbATxq5AeMbomeS07iYZIqDLQEiLy0GcPbDsNBKRti0u7dxH2KRa6qG2qWK1wGYXQAprZ1g2vdxvDtuwzB8fme5aXg3saBaOZRE86uvphyooj4Pb4BXOtYQoak4u7NBwXCZwqXgt1hBP4wAklnsOdoDGz8xsCXOh6kJxGi9w9Guyn3YDl4PQ4fXo3uKoEY0fMf3BKrLQFeXj6CK7LNsHjPERzZuQgD3fRBnqxD944r8NZ1ArYdPYAFTdKxs39frH3C6SOCjFe3cOmFKXqv34tDBzZjkns8dg4ZgHWPJfpK+HwjeraejGt63bF4537sWDwc7Z3LI7+UPHU7tBqzAnuPB+K/1T2hdXEiBi4LlWJI82Hk3h9zthxG4IndmOb6ARsHjceh2PzWE5Xt5XWcf2oMv7V7cGDfOoxxS8Du/i0w+NB7iSGWfhvzOvTEriy6L2XPMeyZXBOR1BEyfI8kvloUH4pTp6JQeegmHDzqj/UzfGEethSDpt+F1ZidOHX2GDZP64M6xvlrQ2neLeo5PnRar8Cl4GAEB1/E3IaKEJY2zjQm/b9h7TDmjDI6LNiJvesnoLGBEHSYzU7F9ae8vTAzdCE6d1+N106jsHHfDizoZQ/FL5nRVVhdOHebgvUHTiLAfyGaCw9h+IiteCmejRUnCxfyOASthwdAueNC7Nq7GgNNb2Nam25Y/5T2QxKLgxOGYFdmSyw/GoTT+5dieDMbqLFFU+mqgl39PQnQEyeKTBEREUXel3oz8waZVFWDqKqq5v1T0yHOY86TBFH2WyIhEQoFJDUumkQ+v0Jm1tUiqupmZPDpDEKEr8kaH22iqmZIeh1NJ0TwmmxsoU/UVLVI7bn3CX2LnBliSdRV1YlpqzUkPJXLM4MkJ6UTwZOlxEtbjajpupPpNxKJKOsN2d/TSvxsxf4nSEp+oYVR5GD/qkRXjZNXjWiZ1iLtx28m195mip/MuDCSWKurEjW9jmRvQr6XU0+QviZqVE4jKmcavZlOAgaYUDk1SJWJ14kkh1zvpOwnXXRpOTqtyNYPIlrNdaSJNv2s250cotXMSYJny0kDHTWibulHDr4XEiL6SA75VSLqarqk5eZ3JAeh5HkBebrUi2jR+lkNP0cpSFJMTAzJ+/ea+PexIlUGHybPP8aQd2EbSScLXeIy7Rp5T599f30mqaNnRpovuEqiYj6Qx/79iL2FH9kXmT8fyWeulMS9HSk3NaLbcS9J/CI++z9GoMwS+BadKHgwj9TRNiEDAnO+nVLwCCLIQg894jonlGRl3xY+X0Ea6DmTqbe5KxLdotftANV+OSmTXBvnQPSariOvqZoQp8xbZEo1PeK98gURUk3xaWc7omc1gpzPKTo1kAyqpEuab3xL72aSGxOrEJ0a08jtXPpHkg+nx/VI03VRNJ/8KZMET3Akei03k/d5lVH+B4kodjtprWdLxlzOrw2lyCaKI0f6WBBdzyXkiYCQ5GN9iJlJd3LgU04hqeTUoEpEv+Me8omWJHi2jHjpuZDZoTnEqL4+NYiY6fmQVS++XJMIlZdfoc+JYsi21nrEcnjQZ11KoZY6zsKoDaS5ngnpcSDu83iQFTqbuOh5kWXPKLxi+1PupsogF0fZEJ3ac8gXlKnkQDc9YjIggPa8gintRD9iYuRHjtBhr3hZnpAlnrrEevApkpSTVcZdMqOWDrEfe5VkCl+QFQ10ie3Q01/sg4JFsiuMQKkh8C3jwM/1cPMUYGBbCy61qsOxohbk6ZLek00DMeow570gSLixAl2rm8DIzBp2VXww/w510VJvaUpKfk8InczIGKBatQrU60J3kH+MgZDGLN+8EwsRrxy8/HrARomb8MijnIoCMsPuUG8vgaxNS3Sopkq96kZo2tYdKjwR4kPv4Xn+M4745eG75jKuHViIIS0coZXyECdXDkeTetSzEkmn75kZkuVZORXQ7PMmWRWoleMwCugZ1VLk/sZ5WGbYbYTR/ETv/NHDgnrg1c3R3f8DRESAN5HZYTef8yZITUmlRHlQVlEpPBxc8By3Q3io3bCG2HMga9gIjWtSb3puGWWqokVrSyjSXLRqN4OHTAhuPc0P7MsL8rQ8Oa41U5OR+uOq/43U2GuMQCklQPeG8Oh3ip/fYycIwT8NbNFy9VMawvEQ9yPS8XChFwx1aYgA/dOvORW3Mt7j7YdCVs+oZ/BB+FukXxkPJxoOwr2ja+SDlc8y8SH6g/TTJeRNUdGIh08xcVSfxCI0LBoqNerAPr9uy4dS9OESlvZrjJq2FWFsYoeeu99BlEF1Y4HvfRoe7R+Pdh5VYGlijEpuM3E9KxMZBR8s2Fg8TXh4OQHhIXiQKcSr+w+RmHAU/Sz1JHWjoQyddscg6/1bxBSCRL5OLwx2eogp9TzQdcq/uBwl/SyRr31OLGQp5Cx89ghPiDVqOKtLDyEsSX+i9Yt4HANVpxqwLmxnV2YkTs7uhvrVrGFqbAanEQFI4dqVDpHFykJP0AoJB6q41YJKTqvL28Ktljreh9FVZZjAd5Av5PZ2gWuzoVhy5AHivyZEs2APYlcYgVJLoLCv1o8RmKeN5vOPY5EHtwMvGRfHuKHluhc4vC0Qc5pWwdq/puP4c2U49ZyH/u5quL1iGNbf4xZBpSc5eclOPpGIfhMJjVzkNhtyw1hJpg35B7ycoqjhXqlBP8yhf1Mi/8PIFr2w4/lJrNz5AK2bGECPlhGT/hLP6SZHmH0pkMQ9wzPuPD++No1L43CWUEt8loca17leJQKhmIOMgTt6dHXBl/2IfOi6GeQzqnlQUJQYzhnc2dvS8VFmSUhMVoaKSo78MlAtp5RHWfOUtaGVs4Wfr043B6UgoYgjpoSpaeIlZZ6CEhQLY1uYPOw6I/CHEJAxqghT+SSEP4iE0NviS7gGyURybAziUui3iJ5vLyJycKVxuEubq30hw5OBmhGn+wqGw3HakqpCqDaeT2PE3anLISfxIK9pTCfD0pIM/dEqqqmowuEcH+IfoC3uu0ticGBkV8x70QLzVs1BTX2Ce8t6YERkwfwF9xaix6CDMB69ANuaWEAl8TDG+G4u+GAhV/h8LvxDosU4Hc836oQ1/sPgmGu04inpwqRglIgkR2VnjD52G42ObcWqpdPRcsN6DNxzAjPrKuYtsbDnPHgSHHkUaenjzAnJo5xyjxt5Klhsf8r9tKTO1H1YyPghwotNA+C3XojeCzZisb0W0i/MRIdp2XkUJ8uXx/K2wedPfJT3XYdrzl2wZ90yLOvngbV1F+HEzp6o9HOtlELkYZcZgR9PoCSm6veVnh6H6BjJBgsetZD5Amq8vqJGpYw1Wg/rj05t26C2aWEaVErRsmawtaHHVdFY7wu7/fFC7MSgP8iSlAyegxPs5HgQPDyMvXeSQATROO5/EcmED3X7KjDP/wUWPEOQ/zk8+pgmNpfl1OhxhqrcCESQlJAMGWsPuHFx51l38O+aK/QkkBx5UnFnwyZcoXFufI3aqOsofXiTIv3nS3wVNahwbi/qsY94ysWmEwiosa1gSzeLcoNi/CfI1+6DsZMnY/LksRjU0w9d6xnmM7hlYFDBCLLUgx8b+ZrWs5ASeSpQVU5GQlKOZZ+BT3HJeRQsSU9GUo5DW5RAn6Xv0B350pMQr1/RzVCUq6axIT23hCVGgBGQSkCtLlp4KiNky3IE5d4snftheUvY0MOCnjz+AAMrK1jl/FlWgkG5Qixi6tSwttZF+qPnSDHJ9Y6VJcx0v+IbSd+vbK2DpJtXqUdZquSSi8JXuP8wHQ6dRqK7pxNsbR3ppshck4Jcr6Y8uo+XKg0wYEQLuDrYwqG6DfQLEb9giWm4czMUxJIeRygvQ48ltILix3C8lqv0hQflYllBM9fkomAukNWGQ6tRWHvmPOY4P8Xmreeln5kt7Tm6MqukTF1EiUlfVghKIWdZK0dU5ofjwiW60iAFAUrSn2j97OwNkBR8HnelntwrwNOwcBAXP4xt744qtnZwsitPV0IlqXhZbOBQmSDk6o0vR8hSD/yVGwnQtbMTO7S4pGTiAb/ZB3Bpd3fIB22Ef/Y+A2nVY9cYgd+NQH7T88fKT95jl19VBCgIkBTzAQnpVC3Q0JAmnRpASz4RjjbyOHj7FuY088JpK3XEhnEGZ7Hn0WXLqIpG/XvB5uhShB8dAmezydBSzkSSSnf8d2skhrVah57772ER9SatV6GbGpPocX5KThgwqD6oLs2TMm9uwPC+q/FSSL3l1PXDFwkgoJ4VnkwF1G/oADlFJQwa7oG9f59DxNr28Hzage601kRS2AnsDeB+/EAZzoOGoVGe8Yd6BFY2gt6qL0XJWo/E6VM2eQtXqQ63KgoIuB6G+d6VsV2dWrs+W3BvSVf81XQj+h2+j7Vt7LBdiw4wafFIVOqAfY9Wwzvf8m85Osmwkj2GsHvXcTejM7zyOXPEhcqaw8lehNmBN5BQxw0Kzw/hyF3aJg45IlFLPeMmTgREw6e1IdJuBuIKqYrJFoV0E/IJt69HQEAHKAcnu0K8aXmryz4xAn8kAZ4ufKdNxb7GY9C9YSwGDmqP2uY0FCDhBh7mnPQhY4PO/eph7chR6GYQgwFe5iiXHo2Hydbo2aYKpEd8yMPFrw+q7PwHA3qrYVwPV5SXS0bkU4IavZrCslgfhjxq+fWD08656NNXGeO61YIBLxZvZZzQpk6ulqK60Iq6GtfvXYYdtl1QRUcGj98kS23KchZWMEraj/XLjkC5gRlUM5+Bm2NoSH2auhjigrBu4TYkuRgjM2QrZm5Lgtu8DrCmsvO9+6C7WSss7DkIsqM6wEmPh7jnkVD16gZPY+mOAOGTY9h0Ux4ONvqQj7+Hu3TjvLq1RoFNoIU/pwgbBytkrd2ARQfV4K78DnE6Pmhayjjz9FphaNclaDepM0amj0IrOw1khUZ8cQiVqD/JoUbvIai9YyL69lTBxD5uqCAXjzvcj5pZcw0ng4rWFiCL/8WC/YZoZaUJ8vj95zWX4mWxQKfBjbFm8Ej0M5uBfjUU6Ik7M7DqdXVM7lML8nQsubb7AN6XrwozOga+vvoUSXxNaLJdk4V8a9jl35JAcRHo3xIYTgThZE07J1JJX5NuHqSbF9W1iJ6pLandYiCZf/z/3WrZAAAgAElEQVTZ5w0/qY/2klEtnIk5fU5dQ5vom9iQGvU7kuW36Oaa/Jsm6TaisDm1iSbdGPhlM0sWeRO0iPRu4EhM9bSIpp4pcWw4i1zidhSlRhD/CW1IzUp6REvHmNh59SFLL76nmy0LptSH+8mUHj6khnV5oqOhTrT0zYijZxcy1f/Rl81Jwg/k3OymxFKLbpDMtRlUTbMiaTD+BHn9OeOcTZP5NozSdzSrTyN3EvJumuSkSX24iwxraE+MdTSIloEVcfs7kIj3CKU+JgendiZuNsZEV1OT6FawIa6t5pCLn3ed5KpL1j0ys5Ym3XRqSQYGSB4ouGmSbpS8u4X0rW1BTCvZkVq+U8g//aoSl0mXJJsmr0whrrZdyeSxLUltZ1tiWbkuGbIzVHxPWl7C6C3E14C2r15zsuHzjq2CfNkVRqAsEfgmnZgNIO35STK/b2NSrZIB0daketGkMtV5Hcj0gHeSjYmiBHJvy3DS3Nmc6GlpUr3pSPVLAIkR7xmUtmmSuy4kHy4vJ/28HYiJrhbVX+akWrN55Cq3h1vapkkBt4FNj9SeE5a9OVNIPl5ZQfo14HSQJtExtiGe0y+SNPHm9y+bJjOeHyLjWlSjGxI1iYaWHjG2rEI8RhwmdO933iT6RIJX+pG6NkZES4PmZ2hGbGq2Ikvv5d/EKNk0qWtYkzRu4kRl1yYG1u6k55LL5GOuXZqZrwPJnG4exKa8DtHUNiJWLp3IOrpJh0vSNk2mXJxFGjmYEF1OlxtWJm5d/yHnuI3n+fgV/hylFneZzG/nTEwpT13TaqTzxgg6dpQyzhyAjFfk5OyuxJ2yFvcn8Tg7iZzMaZQi+1O+dqN9Jf72JjKsmaSNNXWMiGU1L9J9XYikn6SEkX+HNCQOFXSIhni8tiZO9aeRC+J+9jWyJJGQrcNIY8cKRJfmbVOvN1l+JUbS7wVPyfZetYmlgRa1BfSIadWmZMTO8Fybg/PLyj4zAv9fAt8yDvA4kYuaKTx+/Fi8lMcSR4CGrETdxKm9SzB+1nG84dtiwMETmFtXq/CNir8MHPWor2kKl3FXIee9Ajf2dYfCp9ifWHoWPae2PerODoUqjc+8taV1rjjzn1gsy5oR+D8TYDrxRzUAQfwu6smebox9YYtR92sXN39U8SwfRoARYAS+kcC3jAPS1+S+UYCy/xoPSsY10XL4LIysqwleVjjWtqsJF29f9FpzR+qWpl/HhI+K3SegJ/0BjaSg5Vh3t6iAzO+XiiQGYcm6UGQpOmPo382Zsf39SFkOjAAjwAgwAowAI1BGCRQSnFtGa/ujqiVTCb13BkJ72SJsOnIZoaHBMGyvj/87zHJumLhqHrQj62BQNXlkfqJ72ItewPhmInx1b8zbNR+Wz9wx2Lbkm0W/uWD2IiPACDACjAAjwAgwAr8ZARZS8ps1WEnETUpKomeD/xxPtzw9opHGspdEHPYsI1AmCHzLUmKZqDirBCPACDACjICYwLeMAyykpAx3HiUlesY276vP4/pqElyeXN4sMQKMACPACDACjAAjwAgUT4AZ3MUz+m2fkKVHHKqpqYHzRv8Iw5vLg8uLy5PLmyVGgBFgBBgBRoARYAQYgeIJMKupeEa/9ROcYcxCP37rJmTCMwKMACPACDACjMBvToB5uH/zBmTiMwKMACPACDACjAAjwAiUbgLM4C7d7cOkYwQYAUaAEWAEGAFGgBH4zQkwg/s3b0AmPiPACDACjAAjwAgwAoxA6SbADO7S3T5MOkaAEWAEGAFGgBFgBBiB35zAV22a5M4bZIkRYAQYAUZAQoDpRNYTGAFGgBFgBEpC4KsMbisrq5LkyZ5lBBgBRqDMEviWHzwoszBYxRgBRoAR+AMJfIvThYWU/IEdhVWZEWAEGAFGgBFgBBgBRuDXEWAG969jzUpiBBgBRoARYAQYAUaAEfgDCTCD+w9sdFZlRoARYAQYAUaAEWAEGIFfR4AZ3L+ONSuJEWAEGAFGgBFgBBgBRuAPJMAM7j+w0VmVGQFGgBFgBBgBRoARYAR+HQFmcP861qwkRoARYAQYAUaAEWAEGIE/kAAzuP/ARmdVZgQYAUaAEWAEGAFGgBH4dQS+6hzuXyfO/78kgUCAtLQ0ZGVlgRDy/xeoEAl4PB7k5OSgpKQEWdmim/F3qVMhVWWXSwGBkvS3UiAuE4ERYAQYAUaAEShVBJiHG0JEnfPHuahMcIZpYmIiMjMzS7WxzfUgbjLAycnJy8ldWPqd6lRYHdj1/z+B/P0tI/Is/C+8hej/L9ofKwGJvY4ts1Yi6EPpdQx8feMI8fTYfMzcfR+Fa7Ovz409yQgwAoxAaSNQug1uQg3KqAg8jErBzxpSRJHbMaxHH7RuOBqRyWml3tDO34E4Q4jzyBeWuHul2VNfmNzseukkwPWl1A+HMaxBW/TpMQy7opjJ/f9qKWH0WaxfcQj3k39MGwjuzoW7uStm3Mj6iioJERt+DoG3f9SkKxOh+xZh48U31AXCEiPACDACZY/AzzG4hY+wvosr7M2NoKupAU1dQ5g7uKPV4AU4/qxw4zAv3ixcHFMFpnau6LP9xU9Swkk4u+AfBCXwYdG2GzREXzPQlL5OwIW/FJaKulfYO+w6I1AUAYGiC7q1NgM/7jTmLrqAlKIeZvckBIRPsdRLG2pqann/tOtj+fPSYWLy1IxR2bYyjNW/Ylgg8TgxuSOG7nhUejzSyYEYbK0JQ98teJNvDpJ1aQKcjbShoa4ODS09GFvXQONeM+Efnixx5ojbRw/2466hcG3KOjMjwAgwAt9O4Cs06zdkLkrC6/BHiIxJQSZkICNMQ+yrEARtn4kuDXtjd35tKLUIAqFQSL2zUm/+kIvkw1FsPBgNkUIt9O7tXKgnWPj+Epb19UENG2vY1GiCgauDESeWS4DQ+fVhaW4BC4svf5bVRiMo7SU2tK2cfb0SzM3Ns//fElVHnaVcSpYyHyxB88azcSu94HtFebCl3hO9xsZ21rCwsoa1tTUqO7ii+dA1CI7Nhk0ScXfzX2jmYgtr21poOnQjbifkNIQQ784vQq/GdVDTuRqcanqjx9wziKbrwJnn/oazZTYHWl/zStn/X9kXa0tqVJAYHB3iid77fpAHjea3u7sd2myM/MPDIIR4srIZ7PocRGLBrvRVVwhRhEtfP1RTECFq/0Ycz+k3X/X2n/wQH/qtFuDw8eM4nvN3ZDFaG8qUCigylbphw7Et6GVdOuQpGRQR3vivxWGBDpQvb8C2+3kDU0QpsfiY6YChewJx6vgBbJ3XFw7vtqF/kx7499WPWSEombzsaUaAEfjTCPwcgzuHIk8dHXdHIyb2PZ5fXoRm+nyIYk5jz6mPEq9C+nMcm9kF7pUNoatviqqNB2PNtZh8BpEAYXNrQ4vzDOn1wH8Z1MwNWY2O7g4wN9SBtq4xbD26Ye6Z6M9e8JSwbRjWmHrH9XSgX8EKTt6TcOazwZgjHMGnc0dxMRlQrN0erUwKQSGKwp4xf+GAch9svxaC4J19oLB3GKYdj8sOc+FDq8NmhD99iqfZf0/uLISXkhn6+j8SX4sIHA0H1WZYFc498wT3FtWHfEl6migaBxcdgdmgAXBWLMmLRT0rB68FdxAREYGwixvQNv1f/DXzFBLpDCfx/CwMWZOIVhsuI+TKJrRNXo+hM84gnrO5U89hwdgTMPz7P1y5fQfBh4ZDN2AsZp2Mg5znfNx+wtUxHGtbasBuxElEcEweHcIA85IN4um31mHVq5YY2coQhbRMUZUreI/2xYZTd2NuC4Mfk1/BEn6TKzKo0G4Rdk+oh3LfIbFMxdZoX4v24qTzOHruW0337xDgt3yVBwUjR7i5u8M9569OFRgr0coIX2DP0CZwtTODgY4WdAyt4d5jCa7kmsyQpBBsHtIQ9sa60DW2h8+Ek3j/2VakenJDLzSqZQMTfW1o65vDucUIbLmbkCscj+q8m+swsKE9jPX0YVatBUbvvP95hUL4fDnq67tiThhnrFJnwroeaFCjsjg/Lapn7eoPwKaQbI+wmL8I7za1hI7Ya6+Hbgfo6iX1fN9Y2QselY2go2OISk6tsSqf8StpOgGiAmeho4sF9HX0YeHaCetCcxnJlMe2Hs6oRHW8lq4JHBsPx+5HRayO0lXVnZtuwGHEFkxwe4XtWy6hwNN8TVhUr4Waru5o4NsP/+ycA5+si9h9POoPn4T/ll8mJjQj8NsR+CG2TLG15ilAs7wxNOV53G4/CAWc5zoGx0c0R/eFRxH6TgQF2TS8vLod43zbYVFobv8vHaS0TWBpaQlLCwOo0ix48il4/zIFCjrlYaiaheiQw5jnNwr7uM1DghAs6TMCW69GQqhLPbgVFJHwIQOKyvTFPEmA+zfvIZ3IwqqOC3Tz385+VvTmFA7fskTP0a1RWUMR6la+mLZhNQbUUkEhrxSLo6QPJF9ZhY1JHekkQvunlCmnaY/OvRpB7k4wHglScPnQacj7/oUeDlpQpPe6Dm8NpbOHcCmJDrGfohCVYgZnZ13I0YoolG+CCVu2YUydH8hD+Aq7l5yFw3A/2ObMTNIisH9iJzSq6waXmh5oO24PHuaMqCQBB/tWx5DDD3BobHO4OjnC1uEvnBB3IwHCV7aDS43a8GrWDhOOvMs7uGa9xvFpneBVuzZqu7ih+cg9eJSzilBkvkW1IkHc3p5w7H8EqdmPZZ4aBqd2G/FabCAJ8ebUbHRtVBf1POuibmM/LLmUM9HMxJkRzuiwJccIyMLNmXXRcH6oZOn+O+TNvDYLDWvVgJt3C7Sfcz5vKIgoFldX9EcT9zrUGPSAT8/5CHpbRKgD3wCudSwhQ1Jx9+YDtgxfVHfIfU8kFG9ylvwJIRRlrxyJYvDg8k2I6s/GjgOHsHtZT+hdnwW/yYGgXzuqNz/iv2HtMOaMMjos2Im96yegsYGQ6q+czIWIvnMWd8r5YvmuA/DfMg3NZQIxpmV3bMpeXRI+34AebabitslArN67Cws7KiNguC8G+UtbRRLi7b3zCFFri5V7DuLg9nloKRuAv/3+wa3P6pkPndYrcCk4GMHBFzG3oSIEd5di0PS7sBqzE6fOHsPmaX1Qx7jgZDszdCE6d1+N106jsHHfDizoZQ/FL5UB+Lpw7jYF6w+cRID/QjQXHsLwEVvxshBndMbNHXTltAH6dK6Ndr2bIPPwNgSIPQSFJ56iMpRlCTLS03/aHqHCS2d3GAFG4E8jUPR5ct9NIwknRrqj5vhkvH8Tjfh0EdWjjdDJxwDk2Qos3h8FoUJVjKLLq5OdknCgryf6HLiLNavPYvDa+tmly8Cq3x5cGG+Pz8JWHoWzr0YiI+EDYuJf4F+/5ph/LxhXQrPQiXo3nr8SgMjao/+OMzRfJYi4GGfOOsydSDJev4qBkCcLM3NTGvgiPQlePMFLdStYU++8JPGgYeUMDfGHX7CfPisC/y65gTqjJsDiJ7aWKCMDAjkNyAtf4/HTTFh4WX5GJmdhC4us83gaJQDfygX1rJZg4YBpSOjeAg3cqqCCuR20pOP7hqvUC3d6Kbbxe2Kbp3r2BCMDd5YOxcrUodh9ujmMRE+xpW8HjFxjj6Mjab/gKcPEVAW3l0wBr8ccnJzjAA2eCCJxk8nCdsh+BA/JxLkxdbAqn0TJZxdi6mUbrDq9G7VkwrCwdVcsPtkI63w1wSsy32+oWs4rmdexdsY9uG87g/7mckh/uB0z9l3D2zrNUb6YKfD3yCvvOgmnrk9EwoE+cD+ZW37KPGA6RhzVw/xDF1FXOw235rXHgGlWCFjbCjpSZ5b0e1PJlLJ/gA+RUeDmKPm/Yt9BqIy+KkTk2ibQX5tTPR40u+zD4zWNoCC+xIeufT141S1P/88dFu/PotaaM7iX5YM6dKPqluMZaL5mCya1pn2TPu1R4SX8j5zNw4pvXB2N6tcD5zT39LRAeu0WWLn5NnrMcqJhYqtxzWAAAlcPRjVuIutZC5pRNdFxxU488R0Nizw5ST7wy1eDN50UcvnV0X2CwMZnEfRUSMPrJPdlNU1gY2v7ecUuM/YjYulkrFp9d1QzowqripRMaUDd9W3b8NBiKIJWDIQDp9e83EAubcC9nMd5KrBr0BJ24s814Jh6Fjv63ERY5kCYFVjlS8HFHQeR1mQFGmvxoVy/K1oqdca2/96hZc/cK2RcmKIAWRnpiIsMQeCKOTiWYo4B9SpS/f9KmqDsGiPACDACP4xAMcP7d5ZDhEiIeoRHz6LwiTO2Tdph3akt6FKBj8ywO7ifRSBr0xIdqqmCJ2uEpm3doUINpfjQe3heqC1LkHBjBbpWN4GRmTXsqvhg/h1qUFNPW0oK9WjI14CPtw74WdR4algF9XrNwaEnaQU9w9zzaZwHRBEqKkVYsumpSFdQghId4TKvTIcXjVuuVs0ZTf65le3VEyFufx840FhoLh7a2toGtSddLnGMtnTSBB+OL8V+7X4Y6Po9AQDSc8+5mvnxBtauPQ3V+t6wkUlHahqfnu8tMQHEz8jR+tMViNRUyku2Mvpv2Y3xtdJwbll/NKxRB23H70E4x/5HpMwwbFrxCA1HtgftJpIkeEi9Zenw7OgDI85QULRA9w3nsX+IbfYkjA9VdRXEa/tgdA9qbHOzJz7/q0JHVBouwPnDY1GTw6tojWo2sngXHZvtBf/2fItEwVOEotwbXDlyBiHRqZCz6YY5U4s3trk8f468WbgbdBU6TbvATYfCo8aOU5vGMLh1HndpCFdhSV5FhRrZhH71ksF1DZaKI8CHYdsVOHvhAi5k/x0d71pIeBkfRhXphCYuFp+oV1f47BGeEGvUcM6ZhBZXFr2v5AwvVxVEh4Uhlq5ghIVFQ4V+X+0/x7OpoJaHE/iPQvGgiHbOKUnWpCIq8OIQE1eIm5k+KF+nFwY7PcSUeh7oOuVfXI6StukkFhGPY6DqVAPWhanezEicnN0N9atZw9TYDE4jApCSlYkMKUWT+FPYdUIeLTp5QJkTVqk2Orc1xLXdhxCZ+/mMIAy3ouE2uuVhWb05xgZpoOuaHfi7GpsqfkVvYo8wAozAdxL4uQY3TwOd9n3Aiz1dwK0qit7cRPAr+oMyxQmd7VHjfmyDS6LcOycFoVj+13Qcf85DlZ7zsI56bfo5SRSmOF++IdqvP4XdUzqhpnY87vrPQ68GrbEsPJ8Fzxk9XIgLMpCeXsTSuYoaVKhBIbHlh2PP8SNY1FwNiak5+dEYbhoqEEZjobl46IiIh7g6y62QQbS4iue7n3aDevvfoNWIljD44S2VhfPjXOHo6IgajcfhuvUkrBnpDAW+MlSURUhNyTVQZqYiVVAO5cpJ2oOvbovmw/7BtpPXceP4dFR9OBdDl9/7AWEF3ManxThWaTBt01xuLFE84hJUoaH2BYKMoipU5L985vNoO1S2gWEJOYnibmPHlN7wbdYcrXzbY86F1DybZ4vMN/MMxrpyEzDuzxVjTkkxLqQ1uZwThq+fiGqvt2NUs5qo1XQAlgS9+ar1ku+SV5os4mvpiP+UQU9v0Pg8MeVraEMzMwEJuZf5870vTE0Ty8yjE1LF7O9soUWwGxwpyOlZoaqTE5zEf1XhaKJW0BmQw4r+oJUsoSs13GfKl0c1p0iKwVk4Wh6dd9IvBNWf3H8SxZu3oSSfxHeLT7JydIJL5RGHwfAkcud/UdkZo4/dxrmlbaBycTpa1qiPSRdyx5FLKsOVy23ozv+6RAgRXmwaAL/1H+AybiOOnDqOrcNcqTNGmogEH4/vRmDsS6xtrJt9Aow2PJc8Rtqt3dgXkUu3y9XAmMMXcOlyMO4+fIVX949jQTsrsfeeJUaAEWAEfjaBEpon3yIOD9o+UzG1qQ54NDZ3++QVCKExgPIOTrCT40Hw8DD23kkCEUTjuP9FJBM+1O2rwFyWDzVVFeql/B97ZwEeVa4F4H+mQrFCvZS2FEqdUtyKF3d3WNzd3Rbbxd1ZWNzdpejii7u7u1Rn7stUoLQzbWFhFx7J9+axvTc3OfmTm5ycnORquX/5Cm90PXN4mPB9vClcRoQPuJEHVTq0oHa1quRLF8MhRFiun76xo0TX6Ww/eZBhBUR3+vYkm3eL00hiiq9KiaOjOWolTLiW6PNhjIxsktEHt6BznLktOm7TVNja22OV3MTwIPkliPQ+o+H6wjHsydqRxl6ftcVSb2pxL5pQeMRBTp8+zalju1g0qDJuOh3XyAn3jGZcOX/5g5U+7Mp5rpq54elsxNtLW1m47UrUPWEBzlCcplV9eHTxkthwGTeXz7mivNnLpFnvqdOhNFYxB1ex4dHC/BUvXn4cPMNe3OHqfdFuYmRgJBQUvWOyQSGC2TeqEwu0tZi6aj1rVi+lV8EIG9knwWC6pgXps34rW7fqfuvpVzjGJEFMFhXhrxstcbjOZedDqiqSu5Wl4+hF7Dh6iBWd7NnRbThbIpx1hSojCqHVRJdM+JgGiQ8xRdz5h/J+yD/2f5hhaWnGy2cvPvDUvhSW1SSWWOiWdvQGjXhv7hAu3lcLxzRSadHL6OtdNHbPjKf6PHv2xdqDEF8W4Zc5euIN1h6eWKut8clkz9tjf3Hugw/2O47sP4HW3RfvGAta8SX54Z7Yl5NUvCpvX7+Je2SrsRW+lbowbcduhmW/ypy5uyNcjj4+axUhy5tDYgUlzs5GXaxwrp45j5KnET1qFMDP24esPmnFWqSeoL3HuqX7sKo3i73797M/+rf3T5q6XGTF8jMf3zu1Oc6ZsuCX2RtXB/OvYxTRI5K8JAlIApKAPgL/gsItshU+fVX7tCaL6DFDz01nxIqHqF3r0KGSA+qQk4wunhEnlyw0XfUQJakfLVsHiKVBYzzEZkZrtZYXq1vg5yU6yQyVmfnAg8xCAVWFHWNYuaKUr1STUQdinJz6bitdsqYnvXdOCpSoxbijYkOMOiVOThaxXAxM8M7qi6lKbKo7fNygsqiyKUHtgCcs+H0R51+FEfr8MievvvpUeddH9h9eU55vYdwCUxq1LYy5IZ3nQx4aro0PwEqcFmBTaS5P/pHim4z8VUqgWTuJBefEVzffXmTJlLWElaxKfmHhNn5xkJm9BjH7xPOIgUzz6hxrtlwira8PqRKUMz4ooVycM5ZjBTpRzzWWR72JNwGFTNgljvS6r6vqkOss7lyFjro9APElmeC9MF69eI+Vuxe2Yk4TemcTG46HEBoSreAmlIAp5tbixAgb3c8a8w/zIqFQW1uR5O4Nbuvk1T5h5/aTHwZ+7cP19G47mRO6ZROjFDh6uWFtpsYo4m1UYWmdigc3bkZMapTXR9h+6GWUIvxP5TVUHhOyFvPn+ealHNS5C4hjIY8v38zz/MXJbmiup7zg+OFLhAvFyzerj/TfNoT2k+ti8nT/NPv37WPfh98BTt3Vq3V+8qTKthLt6tmyu28dOs9Yz+4D+wjcf4nYhy+FHZnH0Jmr2RG4gekdWjLxqjeNGuQW9WNCzsatyX1/Kq3aT2fzvj2sGdOCDotCKdm2Hp9/EqAZXr7uhO2eyehVu9mzZQmrj70k/MoGZizaxsETpzi+L5ATYkN8KrFy8ukbLWRp0pZ8T2bQrOFwlmzfx4HdO/j7w0eUjEjvkRHl0DxGLt/D8VOnOX35kV43Pe2d9aw8bEHJmhXJIlbrdCt2Eb8sZald1onrq1fwd8w9+ImqJxlJEpAEJIGvT8CQB91Xz8nYsyndKs+g7uJHbJ/8B2dq9KLixLXMsuvN78JCcfVVEhxzVKTZwKG09Ys0tyQvNlAod8/pOXMXlx8/JUW6TKiD3Gg5bTL3uv/O6sNn2LdHjZl5Gjxz+pHdUdjD35pgnzkdSU7d4OwDYYF1zE61hgMYWjZlrDKpsA0oTY4kgaKzX8GmJ9UoqW/npMqSkoOn8qBfXxrlHcqbZGnJXPgXhjTNEqVkCB/upY3xXh4jeSNnGi/eSu8v9g0M4eTMyVwV526P/ODIHH+VaMWZ5TplTS38auMcyBL/o3HupijYm8mt+9CncR5+f5OSjMVaMbmX8K/XxczdnandhzK4cwmmPhWOn2Z24siu3oxv4/txU2ucFBO+oH24jrGr7Gi5LHekH+YnjyQhZ5dJYhNff+oWHkGwxhingF6MbeGVYJ6aW/NoXHsS54XiG/r2OcGbK5N7uhrTPH1YP6EihRo1YnGPRpTf5Uwaj/I07VSSHkM7MdBnEb+WskhYcAMxkuRrRGunLrSvfAxncUJPTr982D4QLgEivtrOnwqeG+hXrghBaiOUJA4U6TOMYhFu+ib41mlDrrYDqFLLmbT2vuTKnxF1hC9Bii+XV7hijavWnIX3xOpQyGvehR6laM7hqJOW5PcdQyhcoj9jrvRmSKVCYjVJhblPTcYMKyk2n+ovoPbhBlbsE4qiWSFKFfk2p+foz/lHvqrl0ZpuVFwTswwmZB90iB1tEyiXypwiw9aywLIPw8a1ZMHDYIzM7cVxelVwT/nRbqIyC+bs7K7MvPqWlBkL0+rP0XTyjXS5M8rYnHnLwunZZzxNqzzFKE0OKo9cyZAawvAhsv+8yasRXs1G0P1YBya3rMqEZC4U75eNYu6nWDViBn3vvEKTNA3eAd2Y2qNAHGuykWsz5q8xZsCAyfSqN5JX2qRYO2emcNY0ui83kLHZOEZd7cKoLuKUFLG8mcTcGgff2th+YiLScGPNCo6nLk63nLFN9Cb4lS1F2ilrWH6kn/69mwkgl7clAUlAEviaBFTCjy5ee+jly5dxd3f/mnl+P2mJo7aW1c9B8/XvyTZwP8sbWH8/sn2WJOKzyEMKUXn2M3zFhs3d3b0+WJSePXv2WSnJyJJAwgTCxPnLNSg09DQpK8/h2B9VPnUBSjiBHzrG99knhrC1lTsN3o3l5p/iGM8fmrAUXhKQBCSB75vAl4wD/45LyffKTWVDpR5thKtLKH9PnfC9SpmwXJrbHD/+DEW4XpQr627wiMOEE5IxJIGECSivdzF2+mLz4YwAACAASURBVGnCzLLTrnv5n0rZTpiOjCEJSAKSgCQgCcQl8K+5lMTN+vu4Yio+kDJptMJhz2ZCoHiN/d+HwPqkUFtSvMtwNA/caOKtzy9G30PymiTwZQRU5sUYseh33K4VoI23PFLtyyjKpyQBSUASkAR+JgI/t0tJrJp+/lx8rj1+D5vvsm3ojk+0tNT/6ZkftUzfJWgpVASB+Nrbz4DoS5YSfwYusoySgCQgCfwsBL5kHPi5XUpitQwTkx/TWhef3PHd+1leDFnOr0tAtqmvy1OmJglIApKAJPD/T0Aq3DHqOGnSpBHWux8p6OTVyW0o/IhlMlQWef2/J5BQe/vvJZQSSAKSgCQgCUgC3x8BqXDHqBNj8eEUc3GWtampOOf7O1e8dfLp5NTJq5PbUPiRymSoDPL6f08gse3tv5dUSiAJSAKSgCQgCXx/BAxrat+frP+KRDoFNWXK2Gd2/ytZf7NM/h/L9M1gyYQlAUlAEpAEJAFJQBL4ygSkhfsrA5XJSQKSgCQgCUgCkoAkIAlIAjEJSIVbtgdJQBKQBCQBSUASkAQkAUngGxKQCvc3hCuTlgQkAUlAEpAEJAFJQBKQBBLlw607b1AGSUASkAQkgUgCsk+ULUESkAQkAUngcwgkSuF2d3f/nDRlXElAEpAE/m8JfMkHD/5vYciCSQKSgCTwExL4EqOLdCn5CRuKLLIkIAlIApKAJCAJSAKSwL9HQCrc/x5rmZMkIAlIApKAJCAJSAKSwE9IQCrcP2GlyyJLApKAJCAJSAKSgCQgCfx7BKTC/e+xljlJApKAJCAJSAKSgCQgCfyEBKTC/RNWuiyyJCAJSAKSgCQgCUgCksC/R0Aq3P8ea5mTJCAJSAKSgCQgCUgCksBPSEAq3D9hpcsiSwKSgCQgCUgCkoAkIAn8ewQSdQ73vyfO95NTeHg4QUFBhIWFoSjK9yPYvyCJSqXCxMSEpEmTYmwsm8i/gFxmIQlIApKAJCAJSAL/xwSkNqWncnXK9uvXr386RTsahW6CERoaGjHZMDc3l0q3njYiL0kCkoAkIAlIApKAJJBYAt+hS0koj07tYMUf09hwWZPYcnwaT3OfQ0tnMHLwLA6+/fwkdJbtn82qrY+SjoGOhQySgCQgCXxNAsqzw/wxZBK7Hn/+6qHy+m8WDhvL5rvarymSTEsS+DoElJccWbuTO+FfJzmZyv8Pge9P4dY+ZnXPWjTuOJjVl7+wxYb8xaR2Xfl14kYuB31+h66z7MoQSUCykC1BEvgvCWh4dj6Qrccf8M/Vy6+Z1j9jorm/kxkTV3P27eeXSvt0P3PGL+PEi89/9p9JLZ+WBBIioOXuig780mkiW2/GbzAMPzGcAhnyMviI1DcSovr/cv/rK9zKM+ZXtYlwRdD7S+VAkw0h3zU/ad3+WD2SxXfdVKVwPwoBzVXGFbWK2ydaBTDhejwDs7CWbepXi3YLLvKF5ocYL/NXTOtH4S7llAT+RQLK4xX0Gnyf+ovm0SSjUbw5q8wd8fT2xDHV11fD4s1Y3vzPCHwDH24VRiamJEmiK5OCRliLw4UhQnfNWNeuVEkwib8d/mcwfsyMNVyZVJFKJxtzcFYVzH/MQkipJYGfgIAau0ojmdHMmw8dr9qc9Glkh/gTVL4s4k9AQGVbkbG7SmNlkxJVAuU1cq3PzA31E4glb/8/Efj6UyuVJXWW3OPJkyc8eXiI/tl0Q4spRcZe4LHu2uMbTHKYTa0CvmRIYy0apiPeBeszfMd9PrXzBLNvYEHc09hg55qLagM2cTvGykv4/UBGNS6Mt4MNts6ZKNZsIn89NbzEGH5qSiLy/BGr1gin6qNZ3LswyX9E8aXMksBPQ0BFEofM5C9QgALRP38/HJMKADq/z0mNKejpgLV1GlyzVmHy2WibtpaHsytiHbFqaEv9lWKPyfPd/FavONndRHwrO9LnH8yhUN3qoh3unQIJjWKquTyGwnZ5GXbGcFqEbKa5o11EupFB4emfVbDz6MweXULau6zrU51Cfhmwt7LC3q08ky5oCN47kELeTtha6q7lo85vu3liwINPeXOKOW1LkMnRBhvHTJTqvZlHn3TX7zi7sCsVsrlgZ+tIpuKtmHbkhTDZGAjaR2zuXepDeiXazuHUm+jY4ZwaX5HMLnZY6djkqETfDXeiVgjCOT39F4rl9MTZzgpLMf74BLRk9qm3MfJ6z/kl3amUMwN2NuL5LBUY+7du8FF4cXQ6rUpkwtHWDpdsFei68Czv9ImoucnyTuXxz+QSwcw2XWZKtJjA/scfR7n4+AUdn0rjMrnxdLQVY6QTfh23iHziK9enQihP19ExrwdpbSyxTutF4abTOf46ko/ethOm49KAYjmiuaQjW5X+zJjRh9oFvCPLm7USA7bd/+DaZFB+vas51hSbeCPy2aDLrOhVDX8vR+wchGxNpnDkZZRsjzfTt2J+Mrs6YCPaVcTYP2grd6Obr+YGf/6SHVehO1jaOJO5dEcWX4xqtwbaaUwyYYd742dXlhkf/P9D2NQsLXYNVhGRStA5/mwX2U6t7VzIFDCEv3QL8gm9Ix/qxhkPz4xk+KTNabi0sB0V8/uQTrQ5awdvfll0n7DrEwj45N2M/x0IvbGGXhWzkc5WtCcnL/J33cQLgy+IvkYpr/3XBL6BhTvhIqlM3/Ho5juSWKclzbuH3D21lhGNwnE5voja1lHPK+E8un5bDD5CjXx8iW3jGlIv+U52dvfFJOgwQ6rWZOz5UMysHbHRPOLo0r7UeJSEvaubk0GPCPHmaZvQXFTh+dJGFN5VhUPTK5BMpB+6rQO5Z/qybmlTnNQa7m0bQY/R27grBijFLAOVeo+kQwFr1GLo29EpLzMzr2VxI0fxdxhHfy1GnyQT2dQ9M8Zhd9g4tDujt90iWKvGKl9bRg6rhaeZrhBabs+qSd1brZiYcSU9Jv/Fg3cpqDxrJ4PymhJ6cAjlOq7ledBr3uYazpGYFm7tM/6a3Jshy87yBiOSu5aj+/AuFI2ypoVcXcnA3lP5SwwAilDVM9f7leFNspIyIRR62MpLkoAkkEgCWg26U5AiXzMVKrUaI7WK8BPjaD3oBFlGLGRcDnPe3HxEKsdoy7ca6yoTWd09JyaiBzF3MkP75DTbtt3Fs+9sxuZIQUhwatxFb34lQTHippXgI5oHHN20m3f5RjK/rjum7zSkSWeEacqSdB5dFHsbE54fmU7PAS0ZkvME44vqZhAxgvKENR2q0+0vbzqOXIh/qqecWD2J0R+UBYVHq9pSpeNRsnUbxaKcplxcOISBVeujClxLC31L80owGvvS9J7RG+uX+5kyuDs1gq05MLMC1io1DgVaMCxzL+yTvefcgr70aN0Lv7zzqW6l4cHJ3Zwyr8/sJcUxD7nDtrF96d7IhsyHfiWnqZBlZRsqtTuMb/shzC+QhrBHL7BxNkZzfSa/VB3AwxL9mNLLk9CjMxnYsTJPkuzlj2ppRM3ECNonnN59iLDCo/mzmhPKo6Ms+G0o1aq/Z+u2nviJFWDTDIb4mRFyKZCNZ+xoP/V3ilhqeJvUi6QiB8Pl+rTjVqXyoVK3iVRztIAHuxjTrQ+txufhr35+qF7qazsajp7cw6nUDZk3pgQp3p5kds/+dP8tN637j6JFOi2nZ/ZgUOvB5Dk5jdIp4pPfmfpz9lPiva6Cw7g4swktVjpQtURa1Mordghlu92BXAwYt5Js6hNM696fBn0ycnRyCZK9vcLBg8/JOugPJnib8PLUnwz6tSmdXY+wtF4a8b7YkL2+mAi0cCBl2A3WDu1Gx04e5N3YChcD7TTB9v0hgpYbczrTbXtqes7eTFHbYO7eNia9SUQxEgjx1U04N/ev44BxLaYvqUAaXqN2tUP9iY9YAu+A60tW9W7LotBmTFhfCRflIVeC3TGX43UC9fJ93f5PFG4jzy7svNWZkFePefryBvMalef3k4c4cDqM2kWjAKmSU3HWVf6sYsqtP2pToNM2zixawolOmciwZgwzzoeQosho/lrRlHTB++hWoCLTDyxg5ZUmdHOOCznePIuZxn3gc66EHmba4JMU+HMHLTKYEHxhPoOXHeSBf3nSJrCG8HbnKAbs92Ly9sXkNjrDqCr1GLO5JNMrW4hBWY29iyNv/xjGyJDWTN49iYxC29cqkW+Zad6+bDvch1crm1Jgc0yBhSVmyyA6rbfl99V7KWQVxLERNWg50J0t0yqJAekt28eN5HG1dQTWsEX1+qiQfxfHX2ahsIV8gz+n6mVcSSDxBDTcnlYGu2nRT6iwqLuMy1NLonr2hGdqe7IFFCCbi+iW/aLiRCmlxhbOeHl7i7XCyKB5Iv5VpcanSHEK+kZ142L/TGJC7LRI1JYa0RdlLU5AfqE0RWeSLC8VHaP+yGrDxeX+rDp+C01RTzHF/xi099fyx8YQyk/9g75VdP0aFHS6yYp1OyMjaa6xeNJG1DUXMqt7cYQuR4C/M88LFmfSrCM0HpFXTDRiBaN0lGvfgToRZS9CTrPrZGk1m3UPy9M4jRqbbGUoF/VIdrfWrFs2nKMXw6nuH3lRnTYbxYsUEkos+NtcYWvpney6qiGnxw0WT96IUa2FzOsXKUvkE2EcGTeFg/Yt2TqlDdl0FVEkNxZ3c1Fr4kKuVO6KRxzPIDW2mQMoVljHrAhFM6spXmgKUwPbM61UMtSOhvh5RGaZLCP5SxYiX4zhyXC5YhEycaVwFdcoAlkwObKICsf/5rnih5Xuauy2E9UI1A5+FCnoL7jkxfHqajbPyUblOmXIKZIvYH+RFQWXcFgcZlBarFwblt8TKxeviHyCTg6n1ZJXlBy7hhYepmLisYQpS8PFKvhEWhbS0c+FW4/dePdZx+GQEoKSTrZUeOQPoLCubgtmIeiAN112HiGoXkWSqVLgU6wiPhEly0nm9ztZ0PQoZ0KFwh3BX087jYibmKDlxeOnKJb+FC6YAz8hnl/WxDyni5NwmzNyzk2ZIjq2kUFzPUbaCb0Dw9Lw9GkoKbz8KZLLTyjafh+6iMRKKOP99wQSUAe/hYAKr45MpF4OZxxcPPDxK8XvuuU65T3v3sVcHxEfXzHVdaYmOJcqRRbxwmvuXebK2zAuHD9NkDiy7s2uzvhaimVWh7JMvyami5q73L6nbwNSYvP8wvKqzDAzuceBdTs4df89Jl71GTYgYWVbl1uKEiPZvbYHuXT+IGYeZPMy5uH9Zx+W7VQpU5HsTTqq9KgslG3dUCXU8AR14jBO7PoL67J1yW8teiHRSWWtWhr7Y7s5ETG4qklqpnBtzzr2XHhMSMqctBrVRSrbX1j98jFJIHEE1KSpNpGde/awJ+q3vlfeCCXa1L8xbbJeoH/hgtTrP4/9d4MTl+R/Fkv0qX/PpmNFfzK5OuHkUYHJQqENDQmJ4waiuXaRK4oHObOn0u/XGnqOU+eFcpM/d4SyHRFMvcmfOxWPzpyJ5Xqir8AqUmXLiYdymfNXdWbDIKH896J6QT/cnB1xzf8rh8NCCQnVv/5u7JweJ9Vznj4XPi46WS4IWfxjyKLLUkxmzpy5T4qcorwfFOAU5C6YFfXF05xLxKTFxK0wBR3fcvbUTeE+mXh+H0uc+HJpH+9jXPPS5PJOj6OzDw0XP0Qr6sYAAj1QxX6DNMIY8+KZUNIjb6uFe42N6g2vXut8gRIhf9BxRrcbx5NyoxlTU7e6C+FXTnMx+D5zqzljYyPci2xscW+zlfevH/Lwk/E/SiRVStK5WKN5/owIj5jQ22weWp+AbB6kc3QhayfhaqOrW8PepHrKZuiSMb5121D42QTK+Vel27QdXNMnk97HE183eh9P6B3AmcqtK2OytC55y7Vj7LpzvPwqZdYrjbz4jQj8+wp3+GkmtB/Exusq/BqOYPqcKTTPGjk7198dildbbLyM6CjEFxDFCiwajVa87mJpNXttunTrRrfoX9e2lEofx8wg3vLPz/OzeJtkpaPwdct2Zz5dyuUid9mWYuPEvUSdKqB9fpwF/ZtQuVx5KlWuwbA97z89A1yU2djRB89UCWrZMUQO5uWLEFJbpv4wwKlTW2ER+opXwTqQySjaZxZtnE8xuUVxcvpXEfIf4pl8gT+r2mVkSeDzCAgjgq07WbJmJWvELwuZnc0j39Fk2em64TiB46qSYu8gKuYMoO+eV6KfE24nukwMdY6fCGCEkej+wsP0GR10EQ2lJdxadM8JV5dEh6DdDKjXk92WdRm9ZDNbV46iagY9fW9ktiJnBW0C/cvn9HBx5FS0wkghUhD/Cz85il9ar0Jb9lf+3LiNtTMbkim+tVxjE7GJVTyv1UFWEElFpPNpEPci6uDTG5F/iWdiR9f7tzpi/BIdvJgTfAa/qLQSXS7lKSs712PEuYy0nryKbVuW0K+47ceVCb2yxb1obCpmFhqNWFGNvKcSBx+Y6Djp/k5Q/hBOjevIxKcV+G1YeT54bQq2irGPsHrv48CBA5G/g4c5enA8FQyMccYmovKEK5ZWVMyN2S1pNOMxeXrOYt22jcztkJcUceoqblk+XFEbCQ5hGHpFTNwbs+TYQf5olo5z4+uQN19r1j7QNYj435FE1008ouluGS6KmrSVp3Pw6HK6ZrnPvOYFyV17Ljo7oww/DoH/QOG+yfVbYn5v5EGVDi2oXa0q+YQ/oMGgvOb4POFKIozgxq5ZyJTcGHdfT5KotLx7puBTryv9+vWjX6/2NGzYmDK6Tl8lBh6hqCJ8um7dEw+Gf2ae+oQR6SnipY8eysKFteBjW1eR3K0sHUcvYsfRQ6zoZM+ObsPZ8iYyIZ0oWk10l6wQEhQa1UGLjaGjOrFAW4upq9azZvVSehXUeYjHCqKTMDL8JsaOLf42w9LSjJfPPm460r58xoskllgkjUxIZeFL9R4TWbH3GHtn10W1qAvjD0VvtdKTpLwkCUgC35aAsRW+lbowbcduhmW/ypy5uwkWpzolFV3C29dvYm0q1yOKKik21sl4c+M6j/Upt4bSMrLG1lrLzWs3EmUk0OWsfXiWc8+cqdi2OSVzZsLbNwsZLfV3UsbumfFUn2fPPmFl1SM2pl74eiqc+uvIxw2IYRc4cOQVNj4+2CY4SolNpXsDuWDkjZ9wZH938Sw3UxSjZacK5PX1xjeHF3b6RYsrjak7Xm5ClgNH+OSbaSprfDLZ8/bYX5z70E2+48j+E2jdffGOOJUr/qB9eJzjd8xw906H6jP4Raea6HJpbnH2QjC+tTvToEhWvL0ziw2kX/f8qoTqP+ziNLpOfETZoUMpZ/MRvpGrJ27qG1y8nxo3d3fco38Z02IejxoQySCcq2fOo+RpRI8aBfDz9iGrT1ox2iU+GFnbYq3c5toNw2OdOqUbJVqNYePeKZR6tZI5mx4LfSX+dyTRdWNI1ES+A0mdC9Jo6Er2LW6A6a5ZrPjSjwMakkNe/6YE4pv3f5uMTbzI7GUqfP2OMaxcUba7p+LZGd2OhFh+1Mo71rXOjJfxKx4+e49GZSN89hrgI84WVFVpT50J4uMH15fQJNtaulgmI+zVCzQB07i0tBapTTLgpnPounCBseWrYx84InF5GiyxUKitrUhy90bESSk+Rk/Yuf2kGJxyRDyhfbievkNuU/231mRNngJHLzeszZ6LzVC6uyosrVPx4MZNsX3SiSSvj7D90EuUUrp7Ybx68R6rLF7YiuKH3tnEhuNi2S9ttEJuUKAEbpiQtZg/z8cs5WCD/uS3eMvx5Zt5nr892XWYNVdY0GkqSofh1HdNgkUGH9JbGPH887T6BGSQtyUBSeBTAmKyff80+/eFfzwWULdSlz4bmYJ2MvuoKb5edpi+PMmJh1pSeaQWvtBmePm6EzZtJqNXmVMg2UOeW5eivKU+tqbkLBWAeaNxdB5pSfO8wqop3Dk+fh9Gf1qVcvhQolga4S/di0Hp2lPM2ZSnZ54I5dhFXyYR19R27rilvM36ybPJ2yI3DmaPuf1Sf3SVbSXa1RtL9b516BzchUo+qQk7fYlX0TYIo4zUblOaqW0609xlMM1zJhGnOgxm8p0c9GuaO/bIEJmJ2Hx3aX8g+16LjXVnVzFqyF5s666golDukmV0x+HNcmaMX0eyYi6kDL0W4RaRWr94n1418qROiyJM69SeBtZ9aFE4HaavbxOWsToBjVuTe/4gWrW3Y0BdT0LEpsn+i0IpObGeHv9tXbLhnF02iqmWpfFO8YCtY4ZxMG1tVgekEG6BiecXLWDyxJbLyAl3V2NmLB3PAu+6+Am3wsv3vuCTy/Hwirf+tQ9YMWgMp1zq0sX9KRfOPxUpqTC1ciGjQyWaVx7DL/3r0y24HWW9LNA8vszTNFWomVds8Iw3GJHeIyPKmHmMXJ6GSu4WKJcffTiRJ95Ho26qnQMo4fkr4/r3xKdnRdySB/O37ggUG10E8dGaXX+yMyijOP0mGUGXj3Ar2EyMjUlRCat8fO9IouvGkJAJvQPKCw4uXsmjtFlwSRXOnb+u8kZtgYXcNWmI6Pd5XXzYJN5w6dKleO/HezP8ijK2iKWSMqW1UnneE0UbFfn9xaVKlwrZlQx2Fkqq1FaKnbOXkjOgljLhWKiiaF8ou4ZWV4pk81AcbS2U1FYOike+GkrvZeeVtzEyC72zTfmtUYDim85WsUhtrTi451DK9FivPNDoImmV5wcnKA0LeippnRsqq8SD8eYZqxBPnz5V4vzu7lF+r5JD8ctTQilftbEyeHADxafIcOX4YxH3yWVlw8CqSh7fTIqfn5+SOVdppcOfJ5QHUek8PDZdaZAns5KrWDmlcr1eyvDWeZVsXXcoD58+Ua5t6KMU9/FWchUppVRsOVlZP+sXxTt9NqXlgovKE/H8g03tFJ88/ZT9j2LJ9HCX0jd/RiV9+vSKi4OVksraQXER/53Bu6Wy4n6kTOsHVlNye3sp3l7eSp5qg5QNl59EleuRcnpJZ6VMjkyKr05evzxK5b6rlfO6sugpe7x1LG9KAj8ZgS/qEz/0hSlFfxjzZ6kUHnNZeb13iFLS11mxSZ1KsUzjqeSv95sS+CiiM1O0z/crv1fPrqSzsVRs0mVT6sy6pIRcG68Utc2jDD0d9il9zWNl78h6Sj43O8UytaVi5+Kt5C3bRVl5x3Ba4bo8Xv+tTG9WRPFysFRSW9gqTp45leJN5ijndTdDjyh9s9gqZaffVSJT0WWpUe7vGKrUyuum2FmkUixsHBTXTPmURnOvKbpH4oSQW8rmofWUAl4OipWFpWKbzlvJV6Gvsvlx1KigfaOcmttBKZ3ZSbERfZlX4SbKhANPY+T3MUXt401Knwr5FG/R91taWCkOXgWUekM3K7dCouKIMeTQpEZKIZGXZWoLxTqNi+KVq5Iy7qSOVbCypaWzYlt/pfI+OvrzBUpVWw+l856oBLSvlJNzOynlsroo4shDJY17PqXTet34pVGe/jVRaVrES3GwtlGcfEsr7eeeVF5HD2wxCx3BzErxKlpBye9hr1jZOCtZyndTlotPH0eG+PhplRcLqyu27p2U3dFl0j0Ub7liZq4oIddXKz0rZFNcdGOopa3i6OanFOy0VtHhDtfbduJyCV7zi2KbtpmyKTgq7VdLlJq2GZX2u3RCxSN/8GqlgU3sdp5a8enxlyJGeDEYX1JW9Kmm5HEXXCysFUevgkqrpbci6jqubKHK4T5+im25Gco9XYR3Z5R5bUsovk7WSuoI3cFDyRowUNmjw6q3nX7KRfdX0MUlSqfSvoqTdWrRbtMqbtkKK9XHHhGyhSknJ1VRsqcXOkUqC0UcSahU6btOuRkhdALvSLx1E5etLr04ZY3vHQi/qsxvnE9xs7cUOpOtki5LWaXTwvMf2nCkhPL//00CXzIOqHQCxjcVuHz5csSyz88Unj1L3G7/n4WJlThHVgZJQBKIJPAz9omy7j+TQNhR+uUqx4lWf7OueYyTXT4zGRldEpAEvk8CXzIOJOgd930WVUolCUgCkoAkIAlIApKAJCAJ/BgEpMKtp55Uul2OMkQQkCxkQ5AEJAFJQBKQBCQBSeCfEfj3N03+M3n/ladNTEwIDTW8i/lfEeI7yUTHQgZJQBKQBCSBzyBgkpNfTzz6jAdkVElAEvh/JyAt3HpqOGlSsStZWrkjGOhYyCAJSAKSgCQgCUgCkoAk8OUEpMKth52xsTHm5uaYioP/f0bFW1dmXdl1DHQsZJAEJAFJQBKQBCQBSUAS+HICUpsywE6naIrjuwzclZclAUlAEpAEJAFJQBKQBCSBxBGQFu7EcZKxJAFJQBKQBCQBSUASkAQkgS8iIBXuL8ImH5IEJAFJQBKQBCQBSUASkAQSR0Aq3InjJGNJApKAJCAJSAKSgCQgCUgCX0RAKtxfhE0+JAlIApKAJCAJSAKSgCQgCSSOQKI2Teo+YSmDJCAJSAKSQCQB2SfKliAJSAKSgCTwOQQSpXC7u7t/TpoyriQgCUgC/7cEdMq27BP/b6tXFkwSkAQkgQQJfInRRbqUJIhVRpAEJAFJQBKQBCQBSUASkAS+nIBUuL+cnXxSEpAEJAFJQBKQBCQBSUASSJCAVLgTRCQjSAKSgCQgCUgCkoAkIAlIAl9OQCrcX85OPikJSAKSgCQgCUgCkoAkIAkkSEAq3AkikhEkAUlAEpAEJAFJQBKQBCSBLycgFe4vZyeflAQkAUlAEpAEJAFJQBKQBBIkIBXuBBHJCJKAJCAJSAKSgCQgCUgCksCXE0jUOdxfnrx88nsnEB4eTlBQEGFhYSiK8r2LK+X7QgIqlQoTExOSJk2KsbF87b8Qo3xMEpAEJAFJQBL4IgI/n4U79CGntq9gzvSNXNF8EbMf+yHlOYdWbeLKe9Ap269fvyY0NFQq2z92rSYovW4ypatnXX3r6p13l9iw6jAv5BwrQXYywvdF4N3pZQwfuY4bP2P//X1VhZRGEpAEPoPA/5nCHc6lWdXxdvSi0pSzhOkBoX2wiu61G9PpK5ChKgAAIABJREFU17VcFXrHzxUUnm3oScMmdSjWbBkvhWVbWrV/shYgFO+gd9f585cA6jZpRJ8tz5E69/fXBsJPDKdAhrwMPqKvF/sob2LjfX8lNCCR8oSVjb3wqLeY+1p9cbS8PPQn4xYd5ane+/qe+bGvKe/vcHTrHi4LI8kPExKsx6iSvA+kaxZXyky+xOfOn7RiVfZzn/lh+ElB/y8JfDOFO+jKagbWK0ymdLZYWduTPnMRavVYwvmgb8nxPad27eXe6/v8teNvXv2LmoTm+gQCrMwxt6nGwhhmw9AdbUif2hwL727sD33G/Ko2mJuLePp+qRxosv5BwnE2hPBmQxt80lqTOpU5qVJbYufkSc5SDRmw8JRhq2XoCSYNWckD0lC2fknUosOS4ecjEKaxolyDUtgp91g6eCqnZTP49o1Ac5VxRW3J1POgXkNAbAFU5o54envimCr+Ljqx8WKn//3+bYZNBk+8XG1Jqvp+pfw3JQs/M5WmDX5n9/MfaYaRyHo0siSdlzfu9slJsLpDLjCnQTYcLFKJ8TMVtj41mXVBdl7/ZluUef0zAvH35l+YtvJ6Jz0rN2Hsur+5/VK4K2iDeX7rONv2XiPc5AsTTdRj5pTrN5mebbszcVAVrBJ8gxOV6FeMpMLIxJQkSZKInynGap2Aumu6vyN/JkaJiaOgef2Ex28EW1USkiU3RfPmAZf+WsXY1qWo/PspQvRI/S5wFgsuhWHkXpcWxVJ9R9ZtYXlf3Rb/nDnx8/Sg/qIneq2uYUcGUSB7d3aH6imcwUuh/DWgBsOOf5uOWXm9nwGlyjL06LuPEmifcXBya8r5Z8fPLwcB9Yey9W70corC84MTaVmuILly5CWgZm9WXolRWyFXWdWnNsXy5SRXgXK0mPAXz6MnjspbTs/rRNUieciZuxCVO87l9NsYs0rlGdu7BVBh7CmCDfJA1DtYlm5JLVcjwi7MZ/bebzoLjkcSecsQASPX+szc8AeNPYwMRYm4nth48SbyPd1UpaRg39WsGRSAxXfXf39PoL5zWRJbj0n8aLd4PeOqOpKgMmLiQpUx2zl/8w73HjzkwaVVtPD6pgrFdw5ZivejEUiwjX9JgcKOrWWjTsFIEcCoEw949vwZ988FsmJiQzJF79cSysPZRV2pmD09djb2ZMxdlT4rrxAx9It7x2Z2oEbRrGR0sMbK1hGvgOEcfbWFlhlSY26RiZ4HoxSo95to7iKuWfoz/GwIV1aOZOSkUfy68AyRKk4QF5d2pUJWF2yt0+BTbRoXY7uSBF9nw691KeCZBhu7dGQp3YapB58SaU9QeLx7LC0rFcA3vT3WVnak863O9EtfsJilsqTOkns8efKEJw8P0T+bDoYpRcZe4LHu2uMbTCtjn3Cc0kk+VItxtj7su/2Qpw/Psby5Fya849S8+cRdiQ7m4IZtPNGaCAbVPtbDl1TwV39GhVXlSRw4uo+hAR/LFjsbY5+mTJ/Xjmyf08dqn3L12rdymwjm2MTBHMjdl445k0eJq/Bi8yA6rrWg4/KDnDq2ib7Ou+g1bHPEyoPyegdDu27CvvtKUd5Appd9yJiec7ka0Zw0XJnTnVH3SzNl5xH+WtMThy3dGL7rTcQEJOT4eDrPUWg4fy9H9i2iseoPOk/4mw/zD5UVxXp2xmXVgIQtPyZZqF7VA2PtQ7ZuOKx3ghabv/z76xFQHm+mb8X8ZHZ1wMbSCjvXXFQbtJXoeVnEipldXoadie6s3nN+SXcq5cwg+ks70mepwNi/xZJ6rHjK03V0zOtBWhtLrNN6UbjpdI6/NrDUF3KDdWIymiejHbZpPCnwy+8E3tffr4XeWEOvitlIZ2uFrZMX+UUbjl7IC7u7laFiNdPX2Q57t7zUGR7IwyhjbNDxqTQukxtPR7HSaeOEX8fN3JhbGTvHRqx5G81Ty72Z5bHz7sre0BC2tkqHXYNVkWOBiBJ8eQU9RN4udjak8SxE6yXXP3UliLccGi4tbEfF/D6ks7PC2sGbXxbdj+rbY9Rn0GVW9KqGv5cjdg6CW5MpHHlpgFt8cYPO8We7EmRytMHazoVMAUP4K3o+HXKTDYNr4++uG2ec8S7an8C34p0fWwS7PEM5HV3VYYfo5WtHuRn3PsoZuo+u3mKcEyujllFxg/cOpJC3E7ai/di75aPOb7t5okdk5flufqtXnOxuDhHjV/r8gzmkGz6V15z8owPlc7nhIOTxLdWBBedi+K2E3mbLsAYiD0fRRq1xyJiFglUGsFWXiZjcz69qh3unwA/9j+byGAp/aLOx6tEQl7Cj9Mv6aVm1j/cxrkkRvNPaYpvWk/ztV0e2p7CH7J3YilLZ3XDNmJWiDWO11/jKo7zkyKTGFPQUDIQe4Jq1CpPPxlYEvt77LVOSBPQR+CYKt9pcdAy6lEVHeCjwDI9CjEjumJ2iOdJGzWK13F3cjIqtZ7D7ZhgW9ql4f3kHk5pVpd9u0QuLl+PYqoVsOXad59qUWKbQ8FydHKuUeSleIAUqzQMO7L8a0emGndrLwVdajNIVpbhnXGvQm8C+1Gg1k93XX2MsXDve377Ny5grc8pTNnYqT4NR6zktRokkxkHc/Gu+sNBXZ/RpnSqj4cH+JSzbdYrbr9WkskxKyDM15rbfBJ2+OkrcNTNHipTLF2HV1z57xOPYfYnmGsf+foHWyJ68+VyJSyo6m2AuLulG5YL5yJc3L4VqDGDjnajEwg4zsGAFfp03kgYl/cmZPT+1RohOPoJnKFvaZ6H+2AX0rxFAvhw5KNJoKsff6BkBEleij7HebaKLv7D4FixJ5QYTEXpGjKDh3rah1CtZiMJFClGodCPG7ouaLIVfYHKtCow4fIuFTfORU1jQ8zX6kzvR9S82kB6Z1o5KxYpQuGBByrYSg2yUOVlzaQIVSvRi+vjONGtYg5KFytJl1a2oSVxk9tpHa5iy2oYGzXMTrW6Lxku4bX46D2pPUQdTMLHFv1hW1Hdv80zkG3JoI3ucatI8vw0mKjMy1mxIwQdb2HFLtGbNDbZvfSQG+1q4i/V0Y6t8NKnmyJ5NR4RCHMbpzdsxrdiM0o6mqEzTUrpJeYx3bOFMDB4qq5K0rhbOgmk7MaRnRUpvjId/PmzVWp4ePyY3oH1um/yH8bVvr3Dw4HOydv2D5auXM72DN9cmNaXzkgd6VncUHq1sQ6V2GzCqMIT5y5cwqVdD/J3jnjajSuVDpW4TWbpxK2umNMRybx9ajT/9SbuNEF0oJ4F9qtBk4XtKDJ7P0jndyHl7ErVqjuDv2MsjQrla1bsti0IrMmH9LrYvH0fHcl6Y6yzQwccZIdrworByDF2ygSX9cnFbGFY6inJoRUlCLgWy8Ywd9acuZ/2aeYxskAXHAsLVMPQw+09ETxXfceTASczyFiK7eGU+CW/30LdGS5a+L8aAuUuZ+2stMqjef2SUYDnCubl/HQeMyzFmyTrWLRxNq/x2n1pTlVfsEMp2ux2pqT9uJevndSDD3wNp0Gc7b2LXc7xxtdyY05lu21PTZPZmdm5ZwG/ti5FeZyCIkLMSjeY+J3/P2SxbMpPBLQLImCx2Bgb+NslG17UHOXToEAcWNcddVL1phpJ0Hr2Q9ds28Ecnd86NasmQwLirVdqXp9m27S6e7Wazav0KZgyuLJ7Xcn95G6r3P4lbmxmsXTuFBim20qnhbxzTVYuQd3fvitSbcoNMbSaweNVyZnfKzNP9+7n0JuYAakDeTy7HwyX246FnGVu7BqMue9NuylKWzR0mVgMzYa1KqL3GX57wE+NoPegE7t0Wsm3nBuYMbIq/o+FRMLZY8m9J4GsQiNtjf4VUjbO1oF+N9bRYfI0VnYqz9lcvitVpQaf29chjL3qf8BPMHL2VJ+qMtFi9h98LJuPu7Krk7hzI0vmBDC6YNVIKVXIqz7rI7HKmhASHkURtgrlQ9JKt2cLFnbu518WNl4F7uKcxwqF4SXxFaS5+Iv9rtotO+la4GpeGS9k9vjipro6leJ4BHI+Kp7m2kDHL76JJkoUuGzeK2fYbVjYrQtOVJ5g6ZSdtphWPimmEU7OVnBiRF6OQYBHfwHpnyDZapUtFq1gcv+mrrYTz/sEZVvy5I0L5VdumxSF2zYbf5aZOcTZyIWM6w9JoH65m2PArFF0aSDuPEPb0KUf3yUUpNqIQScQwZcw1th6vz4J1B0j7Yj2dKg9kesA2+uYUSQvl7fjWy/wydyuDLe8wr0k1Bs8vzqrWGeNR8BPR4JKXYfSBMmhuzaRG9SufPiAG7mmDT1JAlL1FBhOChYvE4GUHeeBfnrTGXrRZ9Afvy3YgdNhW+mSPaRpXeL1jKB0WJaH/sm2Utn3Dnv416PS7N9tGFMbMSAC8s4fzGVYzrYMdYUcGU7rzHI6VH0SeiGSEG0zgZk54leM3h5iTLzU2OWtQM0JKDUH3jzPvzyM4lWhMOiMxObh5G7VzJayjHzF2Jn2au1y5LRRux9tcv5sGzw+KlBrb9E5oN13nkSY7t248w6Gck6iDyGDk6ILDk83cFEap7KmisRjjVrYMdjU3ceB9KUp/nAlER/jwr3F6V9KJxB7evSXeIdAzX43zjLzwFQmoUuGRP4DCuo6rYBaCDnjTRaxsBNWrKN61GEFMlhdP3ohRrYXM61ecFDFvvY4lj4krhau4Rl3MgsmRRVQ4/rdwS/LDNkaXpTxZx5SFTyk2ZiuDattG+M8W8grhfO7fmbKjI7PKxWg4yhuePg0lhZc/RXL5CUXbD7+oHN7tnMacuyUYvbELFVKLVPJlYsDhjdRfv5fXdWpExkqWkfxiQpwvWpkOL0qA61BW7zpHeIGsGAcdYucBhXy/5iO2/vlm+x8sfZCXfhtG0MhR99IIZf3FZhZNjUw64XJEvi1GzrkpU8SfpLFw6f5UHq9lytJwsbIoXL0K6WLkwq3Hbrz7rONwSAmKxaiM+OMWxfLxUxSx2lq4YA78RFJ+UUOZ8ljH+xnFxm5nRC2bGP7KwsKtR6Y4l8RYaO/mJQ4EiNHXOOalomNUzKw2XFzuz6rjt9AU9Yzb36pS41OkOAV1bU0XNJcZPXkbNq138PsvvhF9SvaRN9mWZy4bzvYju+NaJi18TMERG5j4S6ShLNzqIKlU9+KIlvAFLS8McIm96zFo73Smnc0sVrAn0CrDx3FKebwg/vZa+p54RwyXJ/OzJzxT25MtoADZXERpoxtwwsLLGJLAVyPwbcy06rRUnrqfgytH0bZCZizfXWDzpI6UKSwsIbeF3ePJCU7cFspf+FWml0tLKnMLfDrt4q3uBIW7d6IspjHLqCKJma63Fq4HJSpSUIwFoSe2sevBNXZuv0y4kQNlKuT8dJDSPR5+i4tia7ci/MnylSmIpRgPVKZJhGXxY9qhZ/7mbJiCsVdFamZLicrYgbLVCpBCJXbDnz7J9diWYvGoOomZcN0wEMR5x0ZGRjF+qoQ3gxhIKjGXw471J5ulJfYehWi7QnS2anNyN29AjtgCat/xPlhYm0XHnSKF4WpX29dgxv5FtPAUo4zg5pfNlff3H4i60UmjA5icfFUqkE7cNrYvLpb3XnDy1MOIpU+VSk2aIlUpbC86NNN0lCzhwfW/zwgnl28YhJXYzOQeB9bt4NT995h41WfYAKFsGy5ilDBhnNi5H4vKjSmumwSqLcn/SyWs9u3gpM7CI+pRlSwX5YrbRQxeSTK44fTqAY8++G+EcenMZWx9fSLaVZwgrOfLGnnjnb8B89UNGdLYW7QZ0b6DQjAVbTl8Tw+ye1Rh5i1jzExDCH6vW6YNIjhU+PIb32FWdQ+ydgskzNSMJMHvCdIGifoDsyRGnP49AI8iwzlpLMoubN9BunqNEYycM5MpySXO3dDTeGPEUyVPQXIhu/L+He++wkJEHAbyQuIJiHctnYs1GuF+F2dlIvQcpy4IHcE/9yfKtr7EI5bjm5cml3d6HJ19aLhYvJshIYTGqt/wyyc5p/HEP6/1h/5J7eiPf7r3nDst9trETFztTOXWlTFZWpe85dqJvTnnolYJNdw6e4HXr9bT3M0WGxsb8XOm9uKnhD16wFP93imi4/CibNn03NqxPeJo1pCjW9kV5E/5Ypax+koNty9dIcQpOzns9b/Qn1UOfcDEtfArp7kYfJ+51ZyjymCLe5utvH/9kIexXoz44xrhW7cNhZ9NEPs3qtJt2g6uRT3/Qc48Vl9pPFB49fdsOlb0J5OrE04eFZgsfCVDRV0n6lUOu8DZS8FcGFWUNBH1ZoNdrgEcC3nEg8cawi+d4rzGiyIF0yTsW22A68fLxga5fPqoaE8nTvHKMQ/5nD81CiVYzwmUx9S/MW2yXqB/4YLU6z+P/XdjL+MkWAgZQRL4xwSijWX/OKE4CQjFzLVYc4aJX//ba+hcoTELrm8Ws+ZzVKuvRaPrFYxdKNm8OpljGFOMnHOgM5QYCiqrElQulIItmw6xce4iXggfRyOn8lTOqTNDGFIwNOIM4s9dBhPJxSOHIfkwLc6ky8upG7XjR3dKiUe1+bw0+MA/u6FSG2MqNlyamdvi4pOXsg060Kayzpc7VlALxU030wgNFkqfgG8IctgD9s/8jZm7bxAkVhRUL28S5lziYyeuTo2VZXRnqBbKuxnv372L8jVUY2llGdVBi3vmwhb3/g3vBPoIF6NvEUyy0nFGH2ZOm0+Xct14mSY/dbv0o13RtB8swfqzDefVi9dc39qUwiujhFPCCArNzfMopVplmhSzaLl1CrigoHxoRuG8ePaG1BmjyxsrF+GvX+OPC1R8fpXAqT1o0dqMRXNqig/PCBVZKN3qtP7UqOuGd8oQzoaYkTSZbjKTTCjfwQSHpCBTqbrUtBKWpZAgQsySk0ydlGRmCOU6BKtsFambxBPr0FcEiQlHstjHORhZYWPxkoc6H5Z4giKOhYyYg+naz5e09XjSlrc+n4CxieiOtRq0cTSmqHaXUB0J97iVnesx4oZwo5o8jFx2CifH/0Kn23pkicjDQIJx8leTtvJ0Dmavy5Lp4xnfvCDTCo1m08L6aIWwaofaTF3RgcwxRhNVUht0OpP+k+yM8alQgQwTN7H5WjvybNrGm/y9KaFnl7vug026Xb5xRIou0meVQw8H3SXxmijGPrRaMpsGTjE6KuHGaJ8qFqME4ppYNmbJsQLsWDCVcePrkHdqVWZumUwZ3XOCtz7iRkYiz/Awg6NXZD3FYhC0mwH1erI79yBGLymIk+lt5rVuyG4DRYxzWTDVKibk7b2ZceXNP95WGWGuc4UTS8CKMDWoDfbbOqOSTmxDs6pPczRx18+lonXMeErEB9h0xo44IaF6Tqg8ybLTdcNxSm6Yy+Rxg6g4c4ao7038WiiV3jqJk7+8IAl8BQIGX6d/lHb4NXatCOTik6AIRczE3AHblLqXSOHNq7eobIXlz068rRphzUldgja9+9GvX1+6NW9Ik5q5xLJVPLmrrClTp7SwKr5n17jJHAszwq16LSL07djBOD2ZvITPt/KOwAVLuK7n6A5T36z4CEU0/MJalv4tNqeF32fjir3Coiv8tTP5keHbTUliS/tFfxtn689BYYG+c+UU+9ZMo2cVLyJQxw5iFcDJQddD3uGmzn9AbxAnaGwYTNdttnSYu4Z1a1bxR2uxLB0zrrCUv3kbrchpePMmSCjdKaKUbIV3b99GKd9aYfkSHpDJzYnHoK5Xis+7qCK5W1k6jl7EjqOHhAuTPTu6DWdLHOfL2Kkai8mBBe5N5rFH+CXu1/0OHOb40QmUj7lmH/uxD3/rg6y7GcrVrbNYfvyVaO1qkli6U7JZNdIf286hl2rsXV1Q3bzG4wwV6NFf+BGmvM3V+864pRd1Y5SOjE73uXorOXmb9KdnJVceX7uFkXD9sDNKTnpXG+5cvYNdsfb071CCNLevcsfWlfT61smFJPrGrZjF0dy5wR3RFNQOTqT5Nj2BQXryxmcQMHXHy03h1IEjfNhnqO9xzS3OXgjGt3ZnGhTJird3ZjK7xFCmYjxj7J4ZT/UFDh7+uKFYe+8gB28lxcs3g97JalLngjQaupJ9ixtgumsWKy4jjnRzx+zJee4IVxZ3d/cPPzcnC7Ed3HAw9qlGdc8LrF46n5Ub31KsVik9p0oZ4eLrTbI7+9hzTb8x5UvKEVsqI1dP3NQ3uHg/NW4xyuCeMS3mnxpaxakwCcdVp3SjRKsxbNw7hVKvVjJn02PUGb1wV13gwOFnsSYPwkhhI7TOB9e5YWApUGWWjKTCredVjP0w2odnOffMmYptm1MyZya8fbOQUe9SW+zSRv1t6ibaFFy5/Bj7mGV2c8VeLHsZuXqQUXWJoxH9mJ6gSoqNdTLe3LjO4/jn9R8e1sfl07SNcBT9o9Ft0Q4/bLSJfDzBek6gPBGpGFvhW6kL03bsZlj2q8yZuzve05z0lFpekgT+EYFvMsyGHp1Jx2YVyeVqj6XYQW3jUpwxp8JQCaUvoIQvJqZ5ad7OXyjWbzg4rATuzhlwdbLHwasSU87p71hjltK8WD2qCJ+BsBBxLJ5pNurVFmnqxZCC4m2a45tU+Ntu6SjkccOn6BChpH+MbORahw6VHIQl8SSji2fEySULTVc9REnqR8vWAXF8CvVm8yNcNHYjq6+YfGjFRxSO6tmlH1EGhfcvX6Kxd8fDQsw0gsTXCLeeJ1wsU4ZE94xiA9W+DeKoOp3F5lkg209aCz9F+yiFW8ONHRs5o1tGDb9H4K7LuGXP/AnD0INDKOHfiPmxOtQvRah9uJ7ebSdzQpenUQocxShiLczSOqNRRFCJYxhNXnP37uuITVyhb17xPmK+YUqWEgV5sWEBByPOtw3l/vZRdBl/IO6SflRSn/5jhKV1Kl4+eR41wYi+a4RyfQNDB0/n8HPRlrVvubh+K+etM+KaQoVZ7vIEPFzOrH1PCFfec2HBHPa7lKGEbgOPULhLlnVi3x+LuSRWIcIe72HGsscElM8l3KVM8C1XCvXG2WITq2j3IbdZO2sTJqXKkSl24xcT2ScvLMSJBPG93hruHD3KfY3YAJxZnAb0nU8s9VbBz3LRyJM6LYoQvKg9DQYvZOve/QRuWMS2i5/sHhbtxwl3V2POLh3Pgl1HOXX6NBfu6VfRVbYVaVvbgq39mvDrskD2b/+THo2HczxjE1oXjzXjVF5wcNEs1uw5xsmTh9j911XeqC2wELsmUxZvSgOXs4xq2JqJq3aJiWsg6/6cR+DdBLQwIzeq18nO5Un9WRhamtrFU+u1NCYr2kq4t53j9/rNGbdKyLl/N7vPPP7wzn1WOQy0F7VDJZpXTk1g//p0m7mOwP372LFqNksOvoijbMYfVxwGsGsu8zbu5/ipvzmw+wi3gs2wsEiKUZpKtKiSkq296tFj9gZ2i3JsXraBU8IwYF6gFHnZyvBOk1grviOxd/dhbuhczKKCcQZfvJNeYvn4eWzfu4vVC7dzw9odNzFZXz95NlsOn+T0mbPiCF4DBdR32ciLOs0LE7ayC/UH/MnmPfvZu3UZ01dGHimrK2fjsqZs6NOE4ct2ELh5MeMnbEC3tzsymIrvPgRgfmgcnUeuYMfevew5cJEXeqvdMJdPzRYqUhevQ7nURxjWoB1T1gSyb+82Vq46xGPrBNprAuXRXNnAjEXbOChcVo7vC+SEOCAhlWXquL7u+ljJa5LAVyLwTYZZjUUOKgvfss2HznDjkbB4mlmS3tufym360aNoZGfu1mIRG5L/yqAp6zh05TEvjFKRNpMHOvffBEPS/DT5JRPzhp4hWcnm1BHnCRsKSbP3YuWKVAwYNoetf9/mYbApqR198Midg4hNyipbKk5cyyy73vy+dB9XXyXBMUdFmg0cSlu/+NxUDOX4vV5Phn+ZQpivXMfxlWu40bw9qeOIqsahTDOqrP2VquVX4eSYmZqN25K3yyRajPZgRUeh2QmlMLt1IJ0rj+D6o/c4VB4iNprqND6dH4Yx3lmNWdxMWG9vCYXSoxmj6qX/tFMLfcOzp68IjrFuHn5uIrWa/BnRmYe+eUfw3lLkGiusw8WGs3N4QQ4PKEHXTe+EO0eQsJpr6OgfiIlRGmpPXUnnLP5U8NxAv3JFhAuMUHaTOFCkzzCKRbspGblSoaE/mwYXIFO/pKROW5qBi3+lhHCpSVGoB2Mu9WNQpYIRSrZJmgK0GJwt4vQFQ2sAH5GZ4OHrxuMN58SGtMwxNqSJFZfGY/n1UV96lcjGs1BjUmUsTPvx4jhDncnPtBDdx1ykd/9y5OhshK13KfqOrCc2VOpSNiK9+MBFr9vdaeo/geAUzuRtINIqEFkYU7+2jGnRl541czNIa0HGwm0Y0zbuZFNz+zRnQz1onT6el0l8iGW1GFzD1akoUiqf8AWX4fsloMapnlB4tQPpO74vDca/wcjag1qjS1DUO4bUoi+r/ttkznb8lQG1/+Sl+OhBCiuxCbecA3H2eIsNm0WHr2JGsu4M71mLCe/FBs6Aliz4rRs5Yq+YaJ9zbecfDN50kcfBxqR2yUmVsSOpH7GBz5+BqxeSovdQpravGdG/2rgVootwPykS7ykQokxVGhDw6yHOV61PIUObe82y0n35CpL3G8zMjjUY/Fa4qonj9nIUFydX6LL/nHIYqmCxalpu7BpmDO3DqFEtmPsknKT23pQfWJwaeS0+nQjEGzclzy6sZ+Lo/Vx/HoaptRv+zSYzqLzY0Sz6lDJj1jJzSC9+H9GU2c+FV18G0RflLI1f+vpMmnmT9v3H0LzaSzFeWuDgmo+qrlEfg0lZmj4ja9Ksfx9qLQcb3yZMqTCYftM70bnfaBqWfkyocXIs7TJS0EnsQzJUzk+uq3GuP4e12gH0mzSIhpNeQEonMtf5nWpV/ER7saHS+OW86NWNMZ1rMwY7smS1iOF6JpTjcsOZ26szPWe0peaIMExS25Mhd2k8LXQVE7MH1RrmEktWlWU5Rs4fyLuWI+j9ywLRKaciXYHuzK8X0V0tAAAD/UlEQVSQJ4H2Gn95kj48xaoRM+h75xWapGnwDujG1B4F4l2FSRRGGUkS+AwCKvFpb70rRtFpXL58OWKZUIb/AwLvdtEhZ1X+eJiBdpv30zmjfg9LgyUNO8aQEn0xm7iBrh8OVI+OHcqOTnmZmXktixsl4iMGBjP5cW4oj5YKK9A6iqydT4OEd2n+SwUL5+L4SjS80Y5tY0tGHt2mJ+ek538jb4Vp3E7bjDVHRlMo9vEQep6RlyIJyD5RtoSfkUD4mWEUKLaT2ge30T7GCSLfhEX4aYYWbsTTQTsYExBr0vNNMpSJSgKfR+BLxoH41pw/L3cZ+/snkLwwnbsWIpX2KvOERUeGf0ZAZVeR1pWfMG/GoW97EstniKk828qUFcbUa1HUoLKN+NjN0jHzualYENCtIwWksv0ZhGVUSUAS+NYEFJULZUqlYPHoZdzT66byrSWQ6UsCX59APGvOXz8zmeJ/TUBNugbjmfB8PZZ1qwlhYh/i+1/L96Plb0aOdv3JX2Mo448uo/eHr03+R+X4X3t3jOM0EIUBeIpsUIpECV0KLkHNJaBlL4BExyUQxVacAVFT0HGX7dLtomyxSSrmFSshihhbK8fP/qZOPG++V+SXMx7Xowh/fb4pt+9uypdzrzyu59G+//qtPHzfl7fXr57h2K8Lrde0BAiMUOCh/Pj4pnz6WR8A/vC6nH0UZYSrt6TxCthSMt7eNq7s7q6eUHB+R1HjNXwgn0Actfaynt1udBPo8ldit5l8iwABAgSGKNDld8CWkiF2sqearq7+Pd6ip4lNc1EBfb8ov8kJECBAYIICAvcEm/605MViUc9q/r9n2ifMNKqlR7+j7wYBAgQIECDQn4DA3Z/14GaazWZltVqV+XwueA+uO89bUATt6HP0O/puECBAgAABAv0JNP7yvqivfX6sr4B2V6y/pvQ5U4Sv5XLZ55TmIkCAAAECBAikFIhMHNm47Wi8wx13xH7Xtw8aBAgQIECAAAECBKYsEJk4snHb0Ri4N5tNOZ1O5f6+vonKIECAAAECBAgQIDBBgcjCkYkjG7cdjVtK4oLb7bbsdrtyOBzKer22vaStss8TIECAAAECBAikFIhtJHFnO8J2ZOIuo/Ec7r8vGsl+v9+X4/HYZS7fIUCAAAECBAgQIJBKIPZsxzaSLne2nxbaKnCn0lEsAQIECBAgQIAAgQEINO7hHkCNSiBAgAABAgQIECCQVkDgTts6hRMgQIAAAQIECGQQELgzdEmNBAgQIECAAAECaQUE7rStUzgBAgQIECBAgEAGAYE7Q5fUSIAAAQIECBAgkFZA4E7bOoUTIECAAAECBAhkEBC4M3RJjQQIECBAgAABAmkF/gAFgj5cxFsEGgAAAABJRU5ErkJggg==;" vertex="1" parent="1">
                    <mxGeometry x="397" y="145" width="732" height="286" as="geometry"/>
                </mxCell>
                <mxCell id="134" value="Back" style="text;strokeColor=none;fillColor=none;align=left;verticalAlign=top;spacingLeft=4;spacingRight=4;overflow=hidden;rotatable=0;points=[[0,0.5],[1,0.5]];portConstraint=eastwest;strokeWidth=4;fontSize=26;fontColor=#000000;fontFamily=Architects Daughter;fontSource=https%3A%2F%2Ffonts.googleapis.com%2Fcss%3Ffamily%3DArchitects%2BDaughter;" vertex="1" parent="1">
                    <mxGeometry x="-689" y="-393" width="205" height="38" as="geometry"/>
                </mxCell>
            </root>
        </mxGraphModel>
    </diagram>
</mxfile>